<svg width="195" height="71" viewBox="0 0 195 71" fill="none" xmlns="http://www.w3.org/2000/svg">
<mask id="path-1-outside-1_105_5" maskUnits="userSpaceOnUse" x="-1" y="-1" width="197" height="73" fill="black">
<rect fill="white" x="-1" y="-1" width="197" height="73"/>
<path d="M86.9531 3.9375L75.9844 68.9062L49.3594 69.4688L43.6406 35.8125L37.9219 67.0312L11.2969 67.9688L0.234375 3.9375L23.4844 1.875L28.1719 40.7812L34.4531 1.875H52.7344L60.0469 41.25L63.7969 1.875L86.9531 3.9375ZM138.564 31.125C138.564 33.8438 138.377 36.5625 138.002 39.2812C132.658 39.625 127.346 40.1875 122.064 40.9688C116.783 41.7188 111.502 42.4688 106.221 43.2188C107.033 45.4688 108.299 47.2656 110.018 48.6094C111.768 49.9531 113.846 50.625 116.252 50.625C117.502 50.625 118.861 50.3906 120.33 49.9219C121.83 49.4531 123.314 48.875 124.783 48.1875C126.252 47.4688 127.658 46.7031 129.002 45.8906C130.346 45.0781 131.502 44.3438 132.471 43.6875L130.221 64.9688C129.002 65.9062 127.674 66.7031 126.236 67.3594C124.83 68.0156 123.361 68.5469 121.83 68.9531C120.299 69.3594 118.752 69.6562 117.189 69.8438C115.627 70.0312 114.096 70.125 112.596 70.125C109.502 70.125 106.674 69.7031 104.111 68.8594C101.549 68.0156 99.2206 66.8438 97.1269 65.3438C95.0644 63.8125 93.2519 62.0156 91.6894 59.9531C90.1269 57.8906 88.83 55.6406 87.7988 53.2031C86.7675 50.7656 85.9863 48.1875 85.455 45.4688C84.9238 42.75 84.6581 40 84.6581 37.2188C84.6581 34.3125 84.9238 31.4062 85.455 28.5C85.9863 25.5938 86.7831 22.7969 87.8456 20.1094C88.9394 17.4219 90.2988 14.9375 91.9238 12.6562C93.58 10.3438 95.5019 8.32813 97.6894 6.60938C99.8769 4.89062 102.346 3.54688 105.096 2.57812C107.877 1.60937 110.939 1.125 114.283 1.125C117.064 1.125 119.596 1.51562 121.877 2.29688C124.189 3.04688 126.236 4.10938 128.018 5.48438C129.83 6.82813 131.393 8.4375 132.705 10.3125C134.049 12.1875 135.143 14.25 135.986 16.5C136.861 18.7187 137.502 21.0781 137.908 23.5781C138.346 26.0469 138.564 28.5625 138.564 31.125ZM119.814 28.6875C119.814 27.8125 119.721 26.9219 119.533 26.0156C119.346 25.0781 119.033 24.2344 118.596 23.4844C118.189 22.7344 117.643 22.125 116.955 21.6562C116.268 21.1562 115.408 20.9062 114.377 20.9062C113.127 20.9062 112.018 21.25 111.049 21.9375C110.111 22.5938 109.299 23.4375 108.611 24.4688C107.924 25.4688 107.361 26.5625 106.924 27.75C106.486 28.9375 106.158 30.0312 105.939 31.0312L119.814 29.7188V28.6875ZM194.301 52.3125C194.301 54.9062 193.816 57.1406 192.848 59.0156C191.91 60.8906 190.644 62.4844 189.051 63.7969C187.457 65.1094 185.613 66.1875 183.519 67.0312C181.457 67.8438 179.301 68.4844 177.051 68.9531C174.801 69.4219 172.535 69.7344 170.254 69.8906C168.004 70.0469 165.894 70.125 163.926 70.125C161.988 70.125 159.973 70.0469 157.879 69.8906C155.816 69.7656 153.754 69.5312 151.691 69.1875C149.629 68.8438 147.598 68.3906 145.598 67.8281C143.598 67.2344 141.707 66.5 139.926 65.625L139.832 5.25C141.582 4.53125 143.441 3.89062 145.41 3.32812C147.379 2.73437 149.379 2.25 151.41 1.875C153.473 1.46875 155.519 1.17188 157.551 0.984375C159.582 0.765625 161.551 0.65625 163.457 0.65625C165.676 0.65625 167.91 0.796875 170.16 1.07812C172.441 1.35938 174.629 1.82812 176.723 2.48438C178.816 3.14062 180.769 4 182.582 5.0625C184.394 6.09375 185.973 7.375 187.316 8.90625C188.691 10.4375 189.754 12.2188 190.504 14.25C191.285 16.2812 191.676 18.625 191.676 21.2812C191.676 23.0312 191.426 24.6719 190.926 26.2031C190.426 27.7344 189.707 29.1094 188.769 30.3281C187.832 31.5469 186.691 32.5938 185.348 33.4688C184.004 34.3125 182.488 34.9375 180.801 35.3438C182.832 35.875 184.676 36.6562 186.332 37.6875C188.019 38.7188 189.441 39.9688 190.598 41.4375C191.785 42.9062 192.691 44.5625 193.316 46.4062C193.973 48.25 194.301 50.2188 194.301 52.3125ZM170.488 25.5938C170.488 24.6875 170.301 23.9219 169.926 23.2969C169.551 22.6406 169.082 22.1094 168.519 21.7031C167.988 21.2969 167.394 21 166.738 20.8125C166.113 20.625 165.551 20.5312 165.051 20.5312C164.426 20.5312 163.816 20.625 163.223 20.8125C162.629 21 162.051 21.2188 161.488 21.4688L161.207 31.875C161.926 31.875 162.816 31.8125 163.879 31.6875C164.941 31.5625 165.957 31.2969 166.926 30.8906C167.926 30.4531 168.769 29.8281 169.457 29.0156C170.144 28.1719 170.488 27.0312 170.488 25.5938ZM163.832 40.875C162.926 40.875 162.051 40.9688 161.207 41.1562L161.019 51.8438C161.488 51.9375 161.941 52.0312 162.379 52.125C162.848 52.1875 163.301 52.2188 163.738 52.2188C164.394 52.2188 165.113 52.1562 165.894 52.0312C166.676 51.875 167.41 51.5938 168.098 51.1875C168.785 50.75 169.348 50.1719 169.785 49.4531C170.254 48.7344 170.488 47.7812 170.488 46.5938C170.488 45.4062 170.254 44.4375 169.785 43.6875C169.348 42.9375 168.801 42.3594 168.144 41.9531C167.488 41.5156 166.769 41.2344 165.988 41.1094C165.207 40.9531 164.488 40.875 163.832 40.875Z"/>
</mask>
<path d="M86.9531 3.9375L75.9844 68.9062L49.3594 69.4688L43.6406 35.8125L37.9219 67.0312L11.2969 67.9688L0.234375 3.9375L23.4844 1.875L28.1719 40.7812L34.4531 1.875H52.7344L60.0469 41.25L63.7969 1.875L86.9531 3.9375ZM138.564 31.125C138.564 33.8438 138.377 36.5625 138.002 39.2812C132.658 39.625 127.346 40.1875 122.064 40.9688C116.783 41.7188 111.502 42.4688 106.221 43.2188C107.033 45.4688 108.299 47.2656 110.018 48.6094C111.768 49.9531 113.846 50.625 116.252 50.625C117.502 50.625 118.861 50.3906 120.33 49.9219C121.83 49.4531 123.314 48.875 124.783 48.1875C126.252 47.4688 127.658 46.7031 129.002 45.8906C130.346 45.0781 131.502 44.3438 132.471 43.6875L130.221 64.9688C129.002 65.9062 127.674 66.7031 126.236 67.3594C124.83 68.0156 123.361 68.5469 121.83 68.9531C120.299 69.3594 118.752 69.6562 117.189 69.8438C115.627 70.0312 114.096 70.125 112.596 70.125C109.502 70.125 106.674 69.7031 104.111 68.8594C101.549 68.0156 99.2206 66.8438 97.1269 65.3438C95.0644 63.8125 93.2519 62.0156 91.6894 59.9531C90.1269 57.8906 88.83 55.6406 87.7988 53.2031C86.7675 50.7656 85.9863 48.1875 85.455 45.4688C84.9238 42.75 84.6581 40 84.6581 37.2188C84.6581 34.3125 84.9238 31.4062 85.455 28.5C85.9863 25.5938 86.7831 22.7969 87.8456 20.1094C88.9394 17.4219 90.2988 14.9375 91.9238 12.6562C93.58 10.3438 95.5019 8.32813 97.6894 6.60938C99.8769 4.89062 102.346 3.54688 105.096 2.57812C107.877 1.60937 110.939 1.125 114.283 1.125C117.064 1.125 119.596 1.51562 121.877 2.29688C124.189 3.04688 126.236 4.10938 128.018 5.48438C129.83 6.82813 131.393 8.4375 132.705 10.3125C134.049 12.1875 135.143 14.25 135.986 16.5C136.861 18.7187 137.502 21.0781 137.908 23.5781C138.346 26.0469 138.564 28.5625 138.564 31.125ZM119.814 28.6875C119.814 27.8125 119.721 26.9219 119.533 26.0156C119.346 25.0781 119.033 24.2344 118.596 23.4844C118.189 22.7344 117.643 22.125 116.955 21.6562C116.268 21.1562 115.408 20.9062 114.377 20.9062C113.127 20.9062 112.018 21.25 111.049 21.9375C110.111 22.5938 109.299 23.4375 108.611 24.4688C107.924 25.4688 107.361 26.5625 106.924 27.75C106.486 28.9375 106.158 30.0312 105.939 31.0312L119.814 29.7188V28.6875ZM194.301 52.3125C194.301 54.9062 193.816 57.1406 192.848 59.0156C191.91 60.8906 190.644 62.4844 189.051 63.7969C187.457 65.1094 185.613 66.1875 183.519 67.0312C181.457 67.8438 179.301 68.4844 177.051 68.9531C174.801 69.4219 172.535 69.7344 170.254 69.8906C168.004 70.0469 165.894 70.125 163.926 70.125C161.988 70.125 159.973 70.0469 157.879 69.8906C155.816 69.7656 153.754 69.5312 151.691 69.1875C149.629 68.8438 147.598 68.3906 145.598 67.8281C143.598 67.2344 141.707 66.5 139.926 65.625L139.832 5.25C141.582 4.53125 143.441 3.89062 145.41 3.32812C147.379 2.73437 149.379 2.25 151.41 1.875C153.473 1.46875 155.519 1.17188 157.551 0.984375C159.582 0.765625 161.551 0.65625 163.457 0.65625C165.676 0.65625 167.91 0.796875 170.16 1.07812C172.441 1.35938 174.629 1.82812 176.723 2.48438C178.816 3.14062 180.769 4 182.582 5.0625C184.394 6.09375 185.973 7.375 187.316 8.90625C188.691 10.4375 189.754 12.2188 190.504 14.25C191.285 16.2812 191.676 18.625 191.676 21.2812C191.676 23.0312 191.426 24.6719 190.926 26.2031C190.426 27.7344 189.707 29.1094 188.769 30.3281C187.832 31.5469 186.691 32.5938 185.348 33.4688C184.004 34.3125 182.488 34.9375 180.801 35.3438C182.832 35.875 184.676 36.6562 186.332 37.6875C188.019 38.7188 189.441 39.9688 190.598 41.4375C191.785 42.9062 192.691 44.5625 193.316 46.4062C193.973 48.25 194.301 50.2188 194.301 52.3125ZM170.488 25.5938C170.488 24.6875 170.301 23.9219 169.926 23.2969C169.551 22.6406 169.082 22.1094 168.519 21.7031C167.988 21.2969 167.394 21 166.738 20.8125C166.113 20.625 165.551 20.5312 165.051 20.5312C164.426 20.5312 163.816 20.625 163.223 20.8125C162.629 21 162.051 21.2188 161.488 21.4688L161.207 31.875C161.926 31.875 162.816 31.8125 163.879 31.6875C164.941 31.5625 165.957 31.2969 166.926 30.8906C167.926 30.4531 168.769 29.8281 169.457 29.0156C170.144 28.1719 170.488 27.0312 170.488 25.5938ZM163.832 40.875C162.926 40.875 162.051 40.9688 161.207 41.1562L161.019 51.8438C161.488 51.9375 161.941 52.0312 162.379 52.125C162.848 52.1875 163.301 52.2188 163.738 52.2188C164.394 52.2188 165.113 52.1562 165.894 52.0312C166.676 51.875 167.41 51.5938 168.098 51.1875C168.785 50.75 169.348 50.1719 169.785 49.4531C170.254 48.7344 170.488 47.7812 170.488 46.5938C170.488 45.4062 170.254 44.4375 169.785 43.6875C169.348 42.9375 168.801 42.3594 168.144 41.9531C167.488 41.5156 166.769 41.2344 165.988 41.1094C165.207 40.9531 164.488 40.875 163.832 40.875Z" fill="#FC5B5B"/>
<path d="M86.9531 3.9375L87.9392 4.10398L88.1192 3.03741L87.0418 2.94144L86.9531 3.9375ZM75.9844 68.9062L76.0055 69.906L76.8327 69.8886L76.9704 69.0727L75.9844 68.9062ZM49.3594 69.4688L48.3735 69.6363L48.518 70.4867L49.3805 70.4685L49.3594 69.4688ZM43.6406 35.8125L44.6265 35.645L42.657 35.6323L43.6406 35.8125ZM37.9219 67.0312L37.9571 68.0306L38.7606 68.0023L38.9055 67.2114L37.9219 67.0312ZM11.2969 67.9688L10.3115 68.139L10.46 68.9988L11.3321 68.9681L11.2969 67.9688ZM0.234375 3.9375L0.146012 2.94141L-0.935949 3.03739L-0.751027 4.10775L0.234375 3.9375ZM23.4844 1.875L24.4772 1.75538L24.3613 0.793283L23.396 0.878912L23.4844 1.875ZM28.1719 40.7812L27.1791 40.9009L29.1591 40.9406L28.1719 40.7812ZM34.4531 1.875V0.875H33.6016L33.4659 1.71562L34.4531 1.875ZM52.7344 1.875L53.7176 1.69241L53.5658 0.875H52.7344V1.875ZM60.0469 41.25L59.0637 41.4326L61.0424 41.3448L60.0469 41.25ZM63.7969 1.875L63.8856 0.878943L62.8956 0.790767L62.8014 1.78019L63.7969 1.875ZM85.9671 3.77102L74.9983 68.7398L76.9704 69.0727L87.9392 4.10398L85.9671 3.77102ZM75.9633 67.9065L49.3383 68.469L49.3805 70.4685L76.0055 69.906L75.9633 67.9065ZM50.3452 69.3012L44.6265 35.645L42.6548 35.98L48.3735 69.6363L50.3452 69.3012ZM42.657 35.6323L36.9382 66.8511L38.9055 67.2114L44.6243 35.9927L42.657 35.6323ZM37.8867 66.0319L11.2617 66.9694L11.3321 68.9681L37.9571 68.0306L37.8867 66.0319ZM12.2823 67.7985L1.21978 3.76725L-0.751027 4.10775L10.3115 68.139L12.2823 67.7985ZM0.322738 4.93359L23.5727 2.87109L23.396 0.878912L0.146012 2.94141L0.322738 4.93359ZM22.4916 1.99462L27.1791 40.9009L29.1647 40.6616L24.4772 1.75538L22.4916 1.99462ZM29.1591 40.9406L35.4403 2.03438L33.4659 1.71562L27.1847 40.6219L29.1591 40.9406ZM34.4531 2.875H52.7344V0.875H34.4531V2.875ZM51.7512 2.05759L59.0637 41.4326L61.0301 41.0674L53.7176 1.69241L51.7512 2.05759ZM61.0424 41.3448L64.7924 1.96981L62.8014 1.78019L59.0514 41.1552L61.0424 41.3448ZM63.7082 2.87106L86.8644 4.93356L87.0418 2.94144L63.8856 0.878943L63.7082 2.87106ZM138.002 39.2812L138.066 40.2792L138.881 40.2268L138.992 39.4179L138.002 39.2812ZM122.064 40.9688L122.205 41.9588L122.211 41.958L122.064 40.9688ZM106.221 43.2188L106.08 42.2287L104.862 42.4016L105.28 43.5584L106.221 43.2188ZM110.018 48.6094L109.402 49.3972L109.408 49.4025L110.018 48.6094ZM120.33 49.9219L120.032 48.9674L120.026 48.9692L120.33 49.9219ZM124.783 48.1875L125.207 49.0932L125.215 49.0895L125.223 49.0857L124.783 48.1875ZM132.471 43.6875L133.465 43.7926L133.691 41.6527L131.91 42.8596L132.471 43.6875ZM130.221 64.9688L130.83 65.7614L131.17 65.5001L131.215 65.0739L130.221 64.9688ZM126.236 67.3594L125.821 66.4497L125.813 66.4532L126.236 67.3594ZM97.1269 65.3438L96.5308 66.1467L96.5376 66.1517L96.5445 66.1567L97.1269 65.3438ZM87.8456 20.1094L86.9193 19.7324L86.9157 19.7417L87.8456 20.1094ZM91.9238 12.6562L91.1108 12.074L91.1093 12.0761L91.9238 12.6562ZM105.096 2.57812L104.767 1.63377L104.763 1.63494L105.096 2.57812ZM121.877 2.29688L121.553 3.24293L121.561 3.24558L121.568 3.2481L121.877 2.29688ZM128.018 5.48438L127.406 6.27597L127.414 6.2819L127.422 6.28769L128.018 5.48438ZM132.705 10.3125L131.886 10.886L131.892 10.895L132.705 10.3125ZM135.986 16.5L135.05 16.8511L135.053 16.859L135.056 16.8669L135.986 16.5ZM137.908 23.5781L136.921 23.7385L136.922 23.7456L136.923 23.7526L137.908 23.5781ZM119.533 26.0156L118.553 26.2117L118.554 26.2182L119.533 26.0156ZM118.596 23.4844L117.716 23.9607L117.724 23.9746L117.732 23.9882L118.596 23.4844ZM116.955 21.6562L116.367 22.465L116.379 22.4739L116.392 22.4825L116.955 21.6562ZM111.049 21.9375L111.622 22.7567L111.627 22.753L111.049 21.9375ZM108.611 24.4688L109.435 25.0353L109.439 25.0294L109.443 25.0235L108.611 24.4688ZM105.939 31.0312L104.962 30.8176L104.67 32.1558L106.034 32.0268L105.939 31.0312ZM119.814 29.7188L119.909 30.7143L120.814 30.6286V29.7188H119.814ZM137.564 31.125C137.564 33.7976 137.38 36.4707 137.011 39.1446L138.992 39.4179C139.374 36.6543 139.564 33.8899 139.564 31.125H137.564ZM137.938 38.2833C132.567 38.6288 127.227 39.1942 121.918 39.9795L122.211 41.958C127.465 41.1808 132.75 40.6212 138.066 40.2792L137.938 38.2833ZM121.924 39.9787C121.913 39.9801 121.903 39.9816 121.893 39.9831C121.883 39.9845 121.872 39.986 121.862 39.9875C121.852 39.9889 121.841 39.9904 121.831 39.9919C121.821 39.9933 121.81 39.9948 121.8 39.9963C121.79 39.9977 121.779 39.9992 121.769 40.0007C121.759 40.0021 121.748 40.0036 121.738 40.0051C121.728 40.0065 121.717 40.008 121.707 40.0094C121.697 40.0109 121.687 40.0124 121.676 40.0138C121.666 40.0153 121.656 40.0168 121.645 40.0182C121.635 40.0197 121.625 40.0212 121.614 40.0226C121.604 40.0241 121.594 40.0256 121.583 40.027C121.573 40.0285 121.563 40.03 121.552 40.0314C121.542 40.0329 121.532 40.0343 121.521 40.0358C121.511 40.0373 121.501 40.0387 121.491 40.0402C121.48 40.0417 121.47 40.0431 121.46 40.0446C121.449 40.0461 121.439 40.0475 121.429 40.049C121.418 40.0505 121.408 40.0519 121.398 40.0534C121.387 40.0549 121.377 40.0563 121.367 40.0578C121.356 40.0593 121.346 40.0607 121.336 40.0622C121.326 40.0636 121.315 40.0651 121.305 40.0666C121.295 40.068 121.284 40.0695 121.274 40.071C121.264 40.0724 121.253 40.0739 121.243 40.0754C121.233 40.0768 121.222 40.0783 121.212 40.0798C121.202 40.0812 121.191 40.0827 121.181 40.0842C121.171 40.0856 121.16 40.0871 121.15 40.0885C121.14 40.09 121.13 40.0915 121.119 40.0929C121.109 40.0944 121.099 40.0959 121.088 40.0973C121.078 40.0988 121.068 40.1003 121.057 40.1017C121.047 40.1032 121.037 40.1047 121.026 40.1061C121.016 40.1076 121.006 40.1091 120.995 40.1105C120.985 40.112 120.975 40.1134 120.964 40.1149C120.954 40.1164 120.944 40.1178 120.934 40.1193C120.923 40.1208 120.913 40.1222 120.903 40.1237C120.892 40.1252 120.882 40.1266 120.872 40.1281C120.861 40.1296 120.851 40.131 120.841 40.1325C120.83 40.134 120.82 40.1354 120.81 40.1369C120.799 40.1384 120.789 40.1398 120.779 40.1413C120.769 40.1427 120.758 40.1442 120.748 40.1457C120.738 40.1471 120.727 40.1486 120.717 40.1501C120.707 40.1515 120.696 40.153 120.686 40.1545C120.676 40.1559 120.665 40.1574 120.655 40.1589C120.645 40.1603 120.634 40.1618 120.624 40.1633C120.614 40.1647 120.603 40.1662 120.593 40.1676C120.583 40.1691 120.573 40.1706 120.562 40.172C120.552 40.1735 120.542 40.175 120.531 40.1764C120.521 40.1779 120.511 40.1794 120.5 40.1808C120.49 40.1823 120.48 40.1838 120.469 40.1852C120.459 40.1867 120.449 40.1882 120.438 40.1896C120.428 40.1911 120.418 40.1926 120.407 40.194C120.397 40.1955 120.387 40.1969 120.377 40.1984C120.366 40.1999 120.356 40.2013 120.346 40.2028C120.335 40.2043 120.325 40.2057 120.315 40.2072C120.304 40.2087 120.294 40.2101 120.284 40.2116C120.273 40.2131 120.263 40.2145 120.253 40.216C120.242 40.2175 120.232 40.2189 120.222 40.2204C120.211 40.2218 120.201 40.2233 120.191 40.2248C120.181 40.2262 120.17 40.2277 120.16 40.2292C120.15 40.2306 120.139 40.2321 120.129 40.2336C120.119 40.235 120.108 40.2365 120.098 40.238C120.088 40.2394 120.077 40.2409 120.067 40.2424C120.057 40.2438 120.046 40.2453 120.036 40.2468C120.026 40.2482 120.016 40.2497 120.005 40.2511C119.995 40.2526 119.985 40.2541 119.974 40.2555C119.964 40.257 119.954 40.2585 119.943 40.2599C119.933 40.2614 119.923 40.2629 119.912 40.2643C119.902 40.2658 119.892 40.2673 119.881 40.2687C119.871 40.2702 119.861 40.2717 119.85 40.2731C119.84 40.2746 119.83 40.276 119.82 40.2775C119.809 40.279 119.799 40.2804 119.789 40.2819C119.778 40.2834 119.768 40.2848 119.758 40.2863C119.747 40.2878 119.737 40.2892 119.727 40.2907C119.716 40.2922 119.706 40.2936 119.696 40.2951C119.685 40.2966 119.675 40.298 119.665 40.2995C119.654 40.3009 119.644 40.3024 119.634 40.3039C119.624 40.3053 119.613 40.3068 119.603 40.3083C119.593 40.3097 119.582 40.3112 119.572 40.3127C119.562 40.3141 119.551 40.3156 119.541 40.3171C119.531 40.3185 119.52 40.32 119.51 40.3215C119.5 40.3229 119.489 40.3244 119.479 40.3259C119.469 40.3273 119.459 40.3288 119.448 40.3302C119.438 40.3317 119.428 40.3332 119.417 40.3346C119.407 40.3361 119.397 40.3376 119.386 40.339C119.376 40.3405 119.366 40.342 119.355 40.3434C119.345 40.3449 119.335 40.3464 119.324 40.3478C119.314 40.3493 119.304 40.3508 119.293 40.3522C119.283 40.3537 119.273 40.3551 119.263 40.3566C119.252 40.3581 119.242 40.3595 119.232 40.361C119.221 40.3625 119.211 40.3639 119.201 40.3654C119.19 40.3669 119.18 40.3683 119.17 40.3698C119.159 40.3713 119.149 40.3727 119.139 40.3742C119.128 40.3757 119.118 40.3771 119.108 40.3786C119.097 40.3801 119.087 40.3815 119.077 40.383C119.067 40.3844 119.056 40.3859 119.046 40.3874C119.036 40.3888 119.025 40.3903 119.015 40.3918C119.005 40.3932 118.994 40.3947 118.984 40.3962C118.974 40.3976 118.963 40.3991 118.953 40.4006C118.943 40.402 118.932 40.4035 118.922 40.405C118.912 40.4064 118.901 40.4079 118.891 40.4093C118.881 40.4108 118.871 40.4123 118.86 40.4137C118.85 40.4152 118.84 40.4167 118.829 40.4181C118.819 40.4196 118.809 40.4211 118.798 40.4225C118.788 40.424 118.778 40.4255 118.767 40.4269C118.757 40.4284 118.747 40.4299 118.736 40.4313C118.726 40.4328 118.716 40.4343 118.706 40.4357C118.695 40.4372 118.685 40.4386 118.675 40.4401C118.664 40.4416 118.654 40.443 118.644 40.4445C118.633 40.446 118.623 40.4474 118.613 40.4489C118.602 40.4504 118.592 40.4518 118.582 40.4533C118.571 40.4548 118.561 40.4562 118.551 40.4577C118.54 40.4592 118.53 40.4606 118.52 40.4621C118.51 40.4635 118.499 40.465 118.489 40.4665C118.479 40.4679 118.468 40.4694 118.458 40.4709C118.448 40.4723 118.437 40.4738 118.427 40.4753C118.417 40.4767 118.406 40.4782 118.396 40.4797C118.386 40.4811 118.375 40.4826 118.365 40.4841C118.355 40.4855 118.344 40.487 118.334 40.4884C118.324 40.4899 118.314 40.4914 118.303 40.4928C118.293 40.4943 118.283 40.4958 118.272 40.4972C118.262 40.4987 118.252 40.5002 118.241 40.5016C118.231 40.5031 118.221 40.5046 118.21 40.506C118.2 40.5075 118.19 40.509 118.179 40.5104C118.169 40.5119 118.159 40.5134 118.149 40.5148C118.138 40.5163 118.128 40.5177 118.118 40.5192C118.107 40.5207 118.097 40.5221 118.087 40.5236C118.076 40.5251 118.066 40.5265 118.056 40.528C118.045 40.5295 118.035 40.5309 118.025 40.5324C118.014 40.5339 118.004 40.5353 117.994 40.5368C117.983 40.5383 117.973 40.5397 117.963 40.5412C117.953 40.5426 117.942 40.5441 117.932 40.5456C117.922 40.547 117.911 40.5485 117.901 40.55C117.891 40.5514 117.88 40.5529 117.87 40.5544C117.86 40.5558 117.849 40.5573 117.839 40.5588C117.829 40.5602 117.818 40.5617 117.808 40.5632C117.798 40.5646 117.787 40.5661 117.777 40.5676C117.767 40.569 117.757 40.5705 117.746 40.5719C117.736 40.5734 117.726 40.5749 117.715 40.5763C117.705 40.5778 117.695 40.5793 117.684 40.5807C117.674 40.5822 117.664 40.5837 117.653 40.5851C117.643 40.5866 117.633 40.5881 117.622 40.5895C117.612 40.591 117.602 40.5925 117.592 40.5939C117.581 40.5954 117.571 40.5968 117.561 40.5983C117.55 40.5998 117.54 40.6012 117.53 40.6027C117.519 40.6042 117.509 40.6056 117.499 40.6071C117.488 40.6086 117.478 40.61 117.468 40.6115C117.457 40.613 117.447 40.6144 117.437 40.6159C117.426 40.6174 117.416 40.6188 117.406 40.6203C117.396 40.6218 117.385 40.6232 117.375 40.6247C117.365 40.6261 117.354 40.6276 117.344 40.6291C117.334 40.6305 117.323 40.632 117.313 40.6335C117.303 40.6349 117.292 40.6364 117.282 40.6379C117.272 40.6393 117.261 40.6408 117.251 40.6423C117.241 40.6437 117.23 40.6452 117.22 40.6467C117.21 40.6481 117.2 40.6496 117.189 40.651C117.179 40.6525 117.169 40.654 117.158 40.6554C117.148 40.6569 117.138 40.6584 117.127 40.6598C117.117 40.6613 117.107 40.6628 117.096 40.6642C117.086 40.6657 117.076 40.6672 117.065 40.6686C117.055 40.6701 117.045 40.6716 117.034 40.673C117.024 40.6745 117.014 40.6759 117.004 40.6774C116.993 40.6789 116.983 40.6803 116.973 40.6818C116.962 40.6833 116.952 40.6847 116.942 40.6862C116.931 40.6877 116.921 40.6891 116.911 40.6906C116.9 40.6921 116.89 40.6935 116.88 40.695C116.869 40.6965 116.859 40.6979 116.849 40.6994C116.839 40.7009 116.828 40.7023 116.818 40.7038C116.808 40.7052 116.797 40.7067 116.787 40.7082C116.777 40.7096 116.766 40.7111 116.756 40.7126C116.746 40.714 116.735 40.7155 116.725 40.717C116.715 40.7184 116.704 40.7199 116.694 40.7214C116.684 40.7228 116.673 40.7243 116.663 40.7258C116.653 40.7272 116.643 40.7287 116.632 40.7301C116.622 40.7316 116.612 40.7331 116.601 40.7345C116.591 40.736 116.581 40.7375 116.57 40.7389C116.56 40.7404 116.55 40.7419 116.539 40.7433C116.529 40.7448 116.519 40.7463 116.508 40.7477C116.498 40.7492 116.488 40.7507 116.477 40.7521C116.467 40.7536 116.457 40.7551 116.447 40.7565C116.436 40.758 116.426 40.7594 116.416 40.7609C116.405 40.7624 116.395 40.7638 116.385 40.7653C116.374 40.7668 116.364 40.7682 116.354 40.7697C116.343 40.7712 116.333 40.7726 116.323 40.7741C116.312 40.7756 116.302 40.777 116.292 40.7785C116.282 40.78 116.271 40.7814 116.261 40.7829C116.251 40.7843 116.24 40.7858 116.23 40.7873C116.22 40.7887 116.209 40.7902 116.199 40.7917C116.189 40.7931 116.178 40.7946 116.168 40.7961C116.158 40.7975 116.147 40.799 116.137 40.8005C116.127 40.8019 116.116 40.8034 116.106 40.8049C116.096 40.8063 116.086 40.8078 116.075 40.8093C116.065 40.8107 116.055 40.8122 116.044 40.8136C116.034 40.8151 116.024 40.8166 116.013 40.818C116.003 40.8195 115.993 40.821 115.982 40.8224C115.972 40.8239 115.962 40.8254 115.951 40.8268C115.941 40.8283 115.931 40.8298 115.92 40.8312C115.91 40.8327 115.9 40.8342 115.89 40.8356C115.879 40.8371 115.869 40.8385 115.859 40.84C115.848 40.8415 115.838 40.8429 115.828 40.8444C115.817 40.8459 115.807 40.8473 115.797 40.8488C115.786 40.8503 115.776 40.8517 115.766 40.8532C115.755 40.8547 115.745 40.8561 115.735 40.8576C115.724 40.8591 115.714 40.8605 115.704 40.862C115.694 40.8634 115.683 40.8649 115.673 40.8664C115.663 40.8678 115.652 40.8693 115.642 40.8708C115.632 40.8722 115.621 40.8737 115.611 40.8752C115.601 40.8766 115.59 40.8781 115.58 40.8796C115.57 40.881 115.559 40.8825 115.549 40.884C115.539 40.8854 115.529 40.8869 115.518 40.8884C115.508 40.8898 115.498 40.8913 115.487 40.8927C115.477 40.8942 115.467 40.8957 115.456 40.8971C115.446 40.8986 115.436 40.9001 115.425 40.9015C115.415 40.903 115.405 40.9045 115.394 40.9059C115.384 40.9074 115.374 40.9089 115.363 40.9103C115.353 40.9118 115.343 40.9133 115.333 40.9147C115.322 40.9162 115.312 40.9176 115.302 40.9191C115.291 40.9206 115.281 40.922 115.271 40.9235C115.26 40.925 115.25 40.9264 115.24 40.9279C115.229 40.9294 115.219 40.9308 115.209 40.9323C115.198 40.9338 115.188 40.9352 115.178 40.9367C115.167 40.9382 115.157 40.9396 115.147 40.9411C115.137 40.9426 115.126 40.944 115.116 40.9455C115.106 40.9469 115.095 40.9484 115.085 40.9499C115.075 40.9513 115.064 40.9528 115.054 40.9543C115.044 40.9557 115.033 40.9572 115.023 40.9587C115.013 40.9601 115.002 40.9616 114.992 40.9631C114.982 40.9645 114.972 40.966 114.961 40.9675C114.951 40.9689 114.941 40.9704 114.93 40.9718C114.92 40.9733 114.91 40.9748 114.899 40.9762C114.889 40.9777 114.879 40.9792 114.868 40.9806C114.858 40.9821 114.848 40.9836 114.837 40.985C114.827 40.9865 114.817 40.988 114.806 40.9894C114.796 40.9909 114.786 40.9924 114.776 40.9938C114.765 40.9953 114.755 40.9968 114.745 40.9982C114.734 40.9997 114.724 41.0011 114.714 41.0026C114.703 41.0041 114.693 41.0055 114.683 41.007C114.672 41.0085 114.662 41.0099 114.652 41.0114C114.641 41.0129 114.631 41.0143 114.621 41.0158C114.61 41.0173 114.6 41.0187 114.59 41.0202C114.58 41.0217 114.569 41.0231 114.559 41.0246C114.549 41.026 114.538 41.0275 114.528 41.029C114.518 41.0304 114.507 41.0319 114.497 41.0334C114.487 41.0348 114.476 41.0363 114.466 41.0378C114.456 41.0392 114.445 41.0407 114.435 41.0422C114.425 41.0436 114.414 41.0451 114.404 41.0466C114.394 41.048 114.384 41.0495 114.373 41.0509C114.363 41.0524 114.353 41.0539 114.342 41.0553C114.332 41.0568 114.322 41.0583 114.311 41.0597C114.301 41.0612 114.291 41.0627 114.28 41.0641C114.27 41.0656 114.26 41.0671 114.249 41.0685C114.239 41.07 114.229 41.0715 114.219 41.0729C114.208 41.0744 114.198 41.0759 114.188 41.0773C114.177 41.0788 114.167 41.0802 114.157 41.0817C114.146 41.0832 114.136 41.0846 114.126 41.0861C114.115 41.0876 114.105 41.089 114.095 41.0905C114.084 41.092 114.074 41.0934 114.064 41.0949C114.053 41.0964 114.043 41.0978 114.033 41.0993C114.023 41.1008 114.012 41.1022 114.002 41.1037C113.992 41.1051 113.981 41.1066 113.971 41.1081C113.961 41.1095 113.95 41.111 113.94 41.1125C113.93 41.1139 113.919 41.1154 113.909 41.1169C113.899 41.1183 113.888 41.1198 113.878 41.1213C113.868 41.1227 113.857 41.1242 113.847 41.1257C113.837 41.1271 113.827 41.1286 113.816 41.1301C113.806 41.1315 113.796 41.133 113.785 41.1344C113.775 41.1359 113.765 41.1374 113.754 41.1388C113.744 41.1403 113.734 41.1418 113.723 41.1432C113.713 41.1447 113.703 41.1462 113.692 41.1476C113.682 41.1491 113.672 41.1506 113.662 41.152C113.651 41.1535 113.641 41.155 113.631 41.1564C113.62 41.1579 113.61 41.1593 113.6 41.1608C113.589 41.1623 113.579 41.1637 113.569 41.1652C113.558 41.1667 113.548 41.1681 113.538 41.1696C113.527 41.1711 113.517 41.1725 113.507 41.174C113.496 41.1755 113.486 41.1769 113.476 41.1784C113.466 41.1799 113.455 41.1813 113.445 41.1828C113.435 41.1843 113.424 41.1857 113.414 41.1872C113.404 41.1886 113.393 41.1901 113.383 41.1916C113.373 41.193 113.362 41.1945 113.352 41.196C113.342 41.1974 113.331 41.1989 113.321 41.2004C113.311 41.2018 113.3 41.2033 113.29 41.2048C113.28 41.2062 113.27 41.2077 113.259 41.2092C113.249 41.2106 113.239 41.2121 113.228 41.2135C113.218 41.215 113.208 41.2165 113.197 41.2179C113.187 41.2194 113.177 41.2209 113.166 41.2223C113.156 41.2238 113.146 41.2253 113.135 41.2267C113.125 41.2282 113.115 41.2297 113.105 41.2311C113.094 41.2326 113.084 41.2341 113.074 41.2355C113.063 41.237 113.053 41.2384 113.043 41.2399C113.032 41.2414 113.022 41.2428 113.012 41.2443C113.001 41.2458 112.991 41.2472 112.981 41.2487C112.97 41.2502 112.96 41.2516 112.95 41.2531C112.939 41.2546 112.929 41.256 112.919 41.2575C112.909 41.259 112.898 41.2604 112.888 41.2619C112.878 41.2634 112.867 41.2648 112.857 41.2663C112.847 41.2677 112.836 41.2692 112.826 41.2707C112.816 41.2721 112.805 41.2736 112.795 41.2751C112.785 41.2765 112.774 41.278 112.764 41.2795C112.754 41.2809 112.743 41.2824 112.733 41.2839C112.723 41.2853 112.713 41.2868 112.702 41.2883C112.692 41.2897 112.682 41.2912 112.671 41.2926C112.661 41.2941 112.651 41.2956 112.64 41.297C112.63 41.2985 112.62 41.3 112.609 41.3014C112.599 41.3029 112.589 41.3044 112.578 41.3058C112.568 41.3073 112.558 41.3088 112.547 41.3102C112.537 41.3117 112.527 41.3132 112.517 41.3146C112.506 41.3161 112.496 41.3176 112.486 41.319C112.475 41.3205 112.465 41.3219 112.455 41.3234C112.444 41.3249 112.434 41.3263 112.424 41.3278C112.413 41.3293 112.403 41.3307 112.393 41.3322C112.382 41.3337 112.372 41.3351 112.362 41.3366C112.352 41.3381 112.341 41.3395 112.331 41.341C112.321 41.3425 112.31 41.3439 112.3 41.3454C112.29 41.3468 112.279 41.3483 112.269 41.3498C112.259 41.3512 112.248 41.3527 112.238 41.3542C112.228 41.3556 112.217 41.3571 112.207 41.3586C112.197 41.36 112.186 41.3615 112.176 41.363C112.166 41.3644 112.156 41.3659 112.145 41.3674C112.135 41.3688 112.125 41.3703 112.114 41.3718C112.104 41.3732 112.094 41.3747 112.083 41.3761C112.073 41.3776 112.063 41.3791 112.052 41.3805C112.042 41.382 112.032 41.3835 112.021 41.3849C112.011 41.3864 112.001 41.3879 111.99 41.3893C111.98 41.3908 111.97 41.3923 111.96 41.3937C111.949 41.3952 111.939 41.3967 111.929 41.3981C111.918 41.3996 111.908 41.401 111.898 41.4025C111.887 41.404 111.877 41.4054 111.867 41.4069C111.856 41.4084 111.846 41.4098 111.836 41.4113C111.825 41.4128 111.815 41.4142 111.805 41.4157C111.795 41.4172 111.784 41.4186 111.774 41.4201C111.764 41.4216 111.753 41.423 111.743 41.4245C111.733 41.4259 111.722 41.4274 111.712 41.4289C111.702 41.4303 111.691 41.4318 111.681 41.4333C111.671 41.4347 111.66 41.4362 111.65 41.4377C111.64 41.4391 111.629 41.4406 111.619 41.4421C111.609 41.4435 111.599 41.445 111.588 41.4465C111.578 41.4479 111.568 41.4494 111.557 41.4509C111.547 41.4523 111.537 41.4538 111.526 41.4552C111.516 41.4567 111.506 41.4582 111.495 41.4596C111.485 41.4611 111.475 41.4626 111.464 41.464C111.454 41.4655 111.444 41.467 111.433 41.4684C111.423 41.4699 111.413 41.4714 111.403 41.4728C111.392 41.4743 111.382 41.4758 111.372 41.4772C111.361 41.4787 111.351 41.4801 111.341 41.4816C111.33 41.4831 111.32 41.4845 111.31 41.486C111.299 41.4875 111.289 41.4889 111.279 41.4904C111.268 41.4919 111.258 41.4933 111.248 41.4948C111.237 41.4963 111.227 41.4977 111.217 41.4992C111.207 41.5007 111.196 41.5021 111.186 41.5036C111.176 41.5051 111.165 41.5065 111.155 41.508C111.145 41.5094 111.134 41.5109 111.124 41.5124C111.114 41.5138 111.103 41.5153 111.093 41.5168C111.083 41.5182 111.072 41.5197 111.062 41.5212C111.052 41.5226 111.042 41.5241 111.031 41.5256C111.021 41.527 111.011 41.5285 111 41.53C110.99 41.5314 110.98 41.5329 110.969 41.5343C110.959 41.5358 110.949 41.5373 110.938 41.5387C110.928 41.5402 110.918 41.5417 110.907 41.5431C110.897 41.5446 110.887 41.5461 110.876 41.5475C110.866 41.549 110.856 41.5505 110.846 41.5519C110.835 41.5534 110.825 41.5549 110.815 41.5563C110.804 41.5578 110.794 41.5593 110.784 41.5607C110.773 41.5622 110.763 41.5636 110.753 41.5651C110.742 41.5666 110.732 41.568 110.722 41.5695C110.711 41.571 110.701 41.5724 110.691 41.5739C110.68 41.5754 110.67 41.5768 110.66 41.5783C110.65 41.5798 110.639 41.5812 110.629 41.5827C110.619 41.5842 110.608 41.5856 110.598 41.5871C110.588 41.5885 110.577 41.59 110.567 41.5915C110.557 41.5929 110.546 41.5944 110.536 41.5959C110.526 41.5973 110.515 41.5988 110.505 41.6003C110.495 41.6017 110.485 41.6032 110.474 41.6047C110.464 41.6061 110.454 41.6076 110.443 41.6091C110.433 41.6105 110.423 41.612 110.412 41.6134C110.402 41.6149 110.392 41.6164 110.381 41.6178C110.371 41.6193 110.361 41.6208 110.35 41.6222C110.34 41.6237 110.33 41.6252 110.319 41.6266C110.309 41.6281 110.299 41.6296 110.289 41.631C110.278 41.6325 110.268 41.634 110.258 41.6354C110.247 41.6369 110.237 41.6384 110.227 41.6398C110.216 41.6413 110.206 41.6427 110.196 41.6442C110.185 41.6457 110.175 41.6471 110.165 41.6486C110.154 41.6501 110.144 41.6515 110.134 41.653C110.123 41.6545 110.113 41.6559 110.103 41.6574C110.093 41.6589 110.082 41.6603 110.072 41.6618C110.062 41.6633 110.051 41.6647 110.041 41.6662C110.031 41.6676 110.02 41.6691 110.01 41.6706C110 41.672 109.989 41.6735 109.979 41.675C109.969 41.6764 109.958 41.6779 109.948 41.6794C109.938 41.6808 109.927 41.6823 109.917 41.6838C109.907 41.6852 109.897 41.6867 109.886 41.6882C109.876 41.6896 109.866 41.6911 109.855 41.6926C109.845 41.694 109.835 41.6955 109.824 41.6969C109.814 41.6984 109.804 41.6999 109.793 41.7013C109.783 41.7028 109.773 41.7043 109.762 41.7057C109.752 41.7072 109.742 41.7087 109.732 41.7101C109.721 41.7116 109.711 41.7131 109.701 41.7145C109.69 41.716 109.68 41.7175 109.67 41.7189C109.659 41.7204 109.649 41.7218 109.639 41.7233C109.628 41.7248 109.618 41.7262 109.608 41.7277C109.597 41.7292 109.587 41.7306 109.577 41.7321C109.566 41.7336 109.556 41.735 109.546 41.7365C109.536 41.738 109.525 41.7394 109.515 41.7409C109.505 41.7424 109.494 41.7438 109.484 41.7453C109.474 41.7468 109.463 41.7482 109.453 41.7497C109.443 41.7511 109.432 41.7526 109.422 41.7541C109.412 41.7555 109.401 41.757 109.391 41.7585C109.381 41.7599 109.37 41.7614 109.36 41.7629C109.35 41.7643 109.34 41.7658 109.329 41.7673C109.319 41.7687 109.309 41.7702 109.298 41.7717C109.288 41.7731 109.278 41.7746 109.267 41.776C109.257 41.7775 109.247 41.779 109.236 41.7804C109.226 41.7819 109.216 41.7834 109.205 41.7848C109.195 41.7863 109.185 41.7878 109.175 41.7892C109.164 41.7907 109.154 41.7922 109.144 41.7936C109.133 41.7951 109.123 41.7966 109.113 41.798C109.102 41.7995 109.092 41.8009 109.082 41.8024C109.071 41.8039 109.061 41.8053 109.051 41.8068C109.04 41.8083 109.03 41.8097 109.02 41.8112C109.009 41.8127 108.999 41.8141 108.989 41.8156C108.979 41.8171 108.968 41.8185 108.958 41.82C108.948 41.8215 108.937 41.8229 108.927 41.8244C108.917 41.8259 108.906 41.8273 108.896 41.8288C108.886 41.8302 108.875 41.8317 108.865 41.8332C108.855 41.8346 108.844 41.8361 108.834 41.8376C108.824 41.839 108.813 41.8405 108.803 41.842C108.793 41.8434 108.783 41.8449 108.772 41.8464C108.762 41.8478 108.752 41.8493 108.741 41.8508C108.731 41.8522 108.721 41.8537 108.71 41.8551C108.7 41.8566 108.69 41.8581 108.679 41.8595C108.669 41.861 108.659 41.8625 108.648 41.8639C108.638 41.8654 108.628 41.8669 108.618 41.8683C108.607 41.8698 108.597 41.8713 108.587 41.8727C108.576 41.8742 108.566 41.8757 108.556 41.8771C108.545 41.8786 108.535 41.8801 108.525 41.8815C108.514 41.883 108.504 41.8844 108.494 41.8859C108.483 41.8874 108.473 41.8888 108.463 41.8903C108.452 41.8918 108.442 41.8932 108.432 41.8947C108.422 41.8962 108.411 41.8976 108.401 41.8991C108.391 41.9006 108.38 41.902 108.37 41.9035C108.36 41.905 108.349 41.9064 108.339 41.9079C108.329 41.9093 108.318 41.9108 108.308 41.9123C108.298 41.9137 108.287 41.9152 108.277 41.9167C108.267 41.9181 108.256 41.9196 108.246 41.9211C108.236 41.9225 108.226 41.924 108.215 41.9255C108.205 41.9269 108.195 41.9284 108.184 41.9299C108.174 41.9313 108.164 41.9328 108.153 41.9343C108.143 41.9357 108.133 41.9372 108.122 41.9386C108.112 41.9401 108.102 41.9416 108.091 41.943C108.081 41.9445 108.071 41.946 108.06 41.9474C108.05 41.9489 108.04 41.9504 108.03 41.9518C108.019 41.9533 108.009 41.9548 107.999 41.9562C107.988 41.9577 107.978 41.9592 107.968 41.9606C107.957 41.9621 107.947 41.9635 107.937 41.965C107.926 41.9665 107.916 41.9679 107.906 41.9694C107.895 41.9709 107.885 41.9723 107.875 41.9738C107.865 41.9753 107.854 41.9767 107.844 41.9782C107.834 41.9797 107.823 41.9811 107.813 41.9826C107.803 41.9841 107.792 41.9855 107.782 41.987C107.772 41.9884 107.761 41.9899 107.751 41.9914C107.741 41.9928 107.73 41.9943 107.72 41.9958C107.71 41.9972 107.699 41.9987 107.689 42.0002C107.679 42.0016 107.669 42.0031 107.658 42.0046C107.648 42.006 107.638 42.0075 107.627 42.009C107.617 42.0104 107.607 42.0119 107.596 42.0134C107.586 42.0148 107.576 42.0163 107.565 42.0177C107.555 42.0192 107.545 42.0207 107.534 42.0221C107.524 42.0236 107.514 42.0251 107.503 42.0265C107.493 42.028 107.483 42.0295 107.473 42.0309C107.462 42.0324 107.452 42.0339 107.442 42.0353C107.431 42.0368 107.421 42.0383 107.411 42.0397C107.4 42.0412 107.39 42.0426 107.38 42.0441C107.369 42.0456 107.359 42.047 107.349 42.0485C107.338 42.05 107.328 42.0514 107.318 42.0529C107.308 42.0544 107.297 42.0558 107.287 42.0573C107.277 42.0588 107.266 42.0602 107.256 42.0617C107.246 42.0632 107.235 42.0646 107.225 42.0661C107.215 42.0676 107.204 42.069 107.194 42.0705C107.184 42.0719 107.173 42.0734 107.163 42.0749C107.153 42.0763 107.142 42.0778 107.132 42.0793C107.122 42.0807 107.112 42.0822 107.101 42.0837C107.091 42.0851 107.081 42.0866 107.07 42.0881C107.06 42.0895 107.05 42.091 107.039 42.0925C107.029 42.0939 107.019 42.0954 107.008 42.0968C106.998 42.0983 106.988 42.0998 106.977 42.1012C106.967 42.1027 106.957 42.1042 106.946 42.1056C106.936 42.1071 106.926 42.1086 106.916 42.11C106.905 42.1115 106.895 42.113 106.885 42.1144C106.874 42.1159 106.864 42.1174 106.854 42.1188C106.843 42.1203 106.833 42.1218 106.823 42.1232C106.812 42.1247 106.802 42.1261 106.792 42.1276C106.781 42.1291 106.771 42.1305 106.761 42.132C106.75 42.1335 106.74 42.1349 106.73 42.1364C106.72 42.1379 106.709 42.1393 106.699 42.1408C106.689 42.1423 106.678 42.1437 106.668 42.1452C106.658 42.1467 106.647 42.1481 106.637 42.1496C106.627 42.151 106.616 42.1525 106.606 42.154C106.596 42.1554 106.585 42.1569 106.575 42.1584C106.565 42.1598 106.555 42.1613 106.544 42.1628C106.534 42.1642 106.524 42.1657 106.513 42.1672C106.503 42.1686 106.493 42.1701 106.482 42.1716C106.472 42.173 106.462 42.1745 106.451 42.1759C106.441 42.1774 106.431 42.1789 106.42 42.1803C106.41 42.1818 106.4 42.1833 106.389 42.1847C106.379 42.1862 106.369 42.1877 106.359 42.1891C106.348 42.1906 106.338 42.1921 106.328 42.1935C106.317 42.195 106.307 42.1965 106.297 42.1979C106.286 42.1994 106.276 42.2009 106.266 42.2023C106.255 42.2038 106.245 42.2052 106.235 42.2067C106.224 42.2082 106.214 42.2096 106.204 42.2111C106.193 42.2126 106.183 42.214 106.173 42.2155C106.163 42.217 106.152 42.2184 106.142 42.2199C106.132 42.2214 106.121 42.2228 106.111 42.2243C106.101 42.2258 106.09 42.2272 106.08 42.2287L106.361 44.2088C106.372 44.2074 106.382 44.2059 106.392 44.2044C106.402 44.203 106.413 44.2015 106.423 44.2C106.433 44.1986 106.444 44.1971 106.454 44.1956C106.464 44.1942 106.475 44.1927 106.485 44.1912C106.495 44.1898 106.506 44.1883 106.516 44.1868C106.526 44.1854 106.537 44.1839 106.547 44.1824C106.557 44.181 106.568 44.1795 106.578 44.1781C106.588 44.1766 106.598 44.1751 106.609 44.1737C106.619 44.1722 106.629 44.1707 106.64 44.1693C106.65 44.1678 106.66 44.1663 106.671 44.1649C106.681 44.1634 106.691 44.1619 106.702 44.1605C106.712 44.159 106.722 44.1575 106.733 44.1561C106.743 44.1546 106.753 44.1532 106.764 44.1517C106.774 44.1502 106.784 44.1488 106.794 44.1473C106.805 44.1458 106.815 44.1444 106.825 44.1429C106.836 44.1414 106.846 44.14 106.856 44.1385C106.867 44.137 106.877 44.1356 106.887 44.1341C106.898 44.1326 106.908 44.1312 106.918 44.1297C106.929 44.1282 106.939 44.1268 106.949 44.1253C106.959 44.1239 106.97 44.1224 106.98 44.1209C106.99 44.1195 107.001 44.118 107.011 44.1165C107.021 44.1151 107.032 44.1136 107.042 44.1121C107.052 44.1107 107.063 44.1092 107.073 44.1077C107.083 44.1063 107.094 44.1048 107.104 44.1033C107.114 44.1019 107.125 44.1004 107.135 44.099C107.145 44.0975 107.155 44.096 107.166 44.0946C107.176 44.0931 107.186 44.0916 107.197 44.0902C107.207 44.0887 107.217 44.0872 107.228 44.0858C107.238 44.0843 107.248 44.0828 107.259 44.0814C107.269 44.0799 107.279 44.0784 107.29 44.077C107.3 44.0755 107.31 44.0741 107.321 44.0726C107.331 44.0711 107.341 44.0697 107.351 44.0682C107.362 44.0667 107.372 44.0653 107.382 44.0638C107.393 44.0623 107.403 44.0609 107.413 44.0594C107.424 44.0579 107.434 44.0565 107.444 44.055C107.455 44.0535 107.465 44.0521 107.475 44.0506C107.486 44.0491 107.496 44.0477 107.506 44.0462C107.517 44.0448 107.527 44.0433 107.537 44.0418C107.547 44.0404 107.558 44.0389 107.568 44.0374C107.578 44.036 107.589 44.0345 107.599 44.033C107.609 44.0316 107.62 44.0301 107.63 44.0286C107.64 44.0272 107.651 44.0257 107.661 44.0242C107.671 44.0228 107.682 44.0213 107.692 44.0199C107.702 44.0184 107.712 44.0169 107.723 44.0155C107.733 44.014 107.743 44.0125 107.754 44.0111C107.764 44.0096 107.774 44.0081 107.785 44.0067C107.795 44.0052 107.805 44.0037 107.816 44.0023C107.826 44.0008 107.836 43.9993 107.847 43.9979C107.857 43.9964 107.867 43.9949 107.878 43.9935C107.888 43.992 107.898 43.9906 107.908 43.9891C107.919 43.9876 107.929 43.9862 107.939 43.9847C107.95 43.9832 107.96 43.9818 107.97 43.9803C107.981 43.9788 107.991 43.9774 108.001 43.9759C108.012 43.9744 108.022 43.973 108.032 43.9715C108.043 43.97 108.053 43.9686 108.063 43.9671C108.074 43.9657 108.084 43.9642 108.094 43.9627C108.104 43.9613 108.115 43.9598 108.125 43.9583C108.135 43.9569 108.146 43.9554 108.156 43.9539C108.166 43.9525 108.177 43.951 108.187 43.9495C108.197 43.9481 108.208 43.9466 108.218 43.9451C108.228 43.9437 108.239 43.9422 108.249 43.9407C108.259 43.9393 108.269 43.9378 108.28 43.9364C108.29 43.9349 108.3 43.9334 108.311 43.932C108.321 43.9305 108.331 43.929 108.342 43.9276C108.352 43.9261 108.362 43.9246 108.373 43.9232C108.383 43.9217 108.393 43.9202 108.404 43.9188C108.414 43.9173 108.424 43.9158 108.435 43.9144C108.445 43.9129 108.455 43.9115 108.465 43.91C108.476 43.9085 108.486 43.9071 108.496 43.9056C108.507 43.9041 108.517 43.9027 108.527 43.9012C108.538 43.8997 108.548 43.8983 108.558 43.8968C108.569 43.8953 108.579 43.8939 108.589 43.8924C108.6 43.8909 108.61 43.8895 108.62 43.888C108.631 43.8866 108.641 43.8851 108.651 43.8836C108.661 43.8822 108.672 43.8807 108.682 43.8792C108.692 43.8778 108.703 43.8763 108.713 43.8748C108.723 43.8734 108.734 43.8719 108.744 43.8704C108.754 43.869 108.765 43.8675 108.775 43.866C108.785 43.8646 108.796 43.8631 108.806 43.8616C108.816 43.8602 108.826 43.8587 108.837 43.8573C108.847 43.8558 108.857 43.8543 108.868 43.8529C108.878 43.8514 108.888 43.8499 108.899 43.8485C108.909 43.847 108.919 43.8455 108.93 43.8441C108.94 43.8426 108.95 43.8411 108.961 43.8397C108.971 43.8382 108.981 43.8367 108.992 43.8353C109.002 43.8338 109.012 43.8324 109.022 43.8309C109.033 43.8294 109.043 43.828 109.053 43.8265C109.064 43.825 109.074 43.8236 109.084 43.8221C109.095 43.8206 109.105 43.8192 109.115 43.8177C109.126 43.8162 109.136 43.8148 109.146 43.8133C109.157 43.8118 109.167 43.8104 109.177 43.8089C109.188 43.8074 109.198 43.806 109.208 43.8045C109.218 43.8031 109.229 43.8016 109.239 43.8001C109.249 43.7987 109.26 43.7972 109.27 43.7957C109.28 43.7943 109.291 43.7928 109.301 43.7913C109.311 43.7899 109.322 43.7884 109.332 43.7869C109.342 43.7855 109.353 43.784 109.363 43.7825C109.373 43.7811 109.384 43.7796 109.394 43.7782C109.404 43.7767 109.414 43.7752 109.425 43.7738C109.435 43.7723 109.445 43.7708 109.456 43.7694C109.466 43.7679 109.476 43.7664 109.487 43.765C109.497 43.7635 109.507 43.762 109.518 43.7606C109.528 43.7591 109.538 43.7576 109.549 43.7562C109.559 43.7547 109.569 43.7532 109.579 43.7518C109.59 43.7503 109.6 43.7489 109.61 43.7474C109.621 43.7459 109.631 43.7445 109.641 43.743C109.652 43.7415 109.662 43.7401 109.672 43.7386C109.683 43.7371 109.693 43.7357 109.703 43.7342C109.714 43.7327 109.724 43.7313 109.734 43.7298C109.745 43.7283 109.755 43.7269 109.765 43.7254C109.775 43.724 109.786 43.7225 109.796 43.721C109.806 43.7196 109.817 43.7181 109.827 43.7166C109.837 43.7152 109.848 43.7137 109.858 43.7122C109.868 43.7108 109.879 43.7093 109.889 43.7078C109.899 43.7064 109.91 43.7049 109.92 43.7034C109.93 43.702 109.941 43.7005 109.951 43.6991C109.961 43.6976 109.971 43.6961 109.982 43.6947C109.992 43.6932 110.002 43.6917 110.013 43.6903C110.023 43.6888 110.033 43.6873 110.044 43.6859C110.054 43.6844 110.064 43.6829 110.075 43.6815C110.085 43.68 110.095 43.6785 110.106 43.6771C110.116 43.6756 110.126 43.6741 110.136 43.6727C110.147 43.6712 110.157 43.6698 110.167 43.6683C110.178 43.6668 110.188 43.6654 110.198 43.6639C110.209 43.6624 110.219 43.661 110.229 43.6595C110.24 43.658 110.25 43.6566 110.26 43.6551C110.271 43.6536 110.281 43.6522 110.291 43.6507C110.302 43.6492 110.312 43.6478 110.322 43.6463C110.332 43.6449 110.343 43.6434 110.353 43.6419C110.363 43.6405 110.374 43.639 110.384 43.6375C110.394 43.6361 110.405 43.6346 110.415 43.6331C110.425 43.6317 110.436 43.6302 110.446 43.6287C110.456 43.6273 110.467 43.6258 110.477 43.6243C110.487 43.6229 110.498 43.6214 110.508 43.6199C110.518 43.6185 110.528 43.617 110.539 43.6156C110.549 43.6141 110.559 43.6126 110.57 43.6112C110.58 43.6097 110.59 43.6082 110.601 43.6068C110.611 43.6053 110.621 43.6038 110.632 43.6024C110.642 43.6009 110.652 43.5994 110.663 43.598C110.673 43.5965 110.683 43.595 110.694 43.5936C110.704 43.5921 110.714 43.5907 110.724 43.5892C110.735 43.5877 110.745 43.5863 110.755 43.5848C110.766 43.5833 110.776 43.5819 110.786 43.5804C110.797 43.5789 110.807 43.5775 110.817 43.576C110.828 43.5745 110.838 43.5731 110.848 43.5716C110.859 43.5701 110.869 43.5687 110.879 43.5672C110.889 43.5657 110.9 43.5643 110.91 43.5628C110.92 43.5614 110.931 43.5599 110.941 43.5584C110.951 43.557 110.962 43.5555 110.972 43.554C110.982 43.5526 110.993 43.5511 111.003 43.5496C111.013 43.5482 111.024 43.5467 111.034 43.5452C111.044 43.5438 111.055 43.5423 111.065 43.5408C111.075 43.5394 111.085 43.5379 111.096 43.5365C111.106 43.535 111.116 43.5335 111.127 43.5321C111.137 43.5306 111.147 43.5291 111.158 43.5277C111.168 43.5262 111.178 43.5247 111.189 43.5233C111.199 43.5218 111.209 43.5203 111.22 43.5189C111.23 43.5174 111.24 43.5159 111.251 43.5145C111.261 43.513 111.271 43.5116 111.281 43.5101C111.292 43.5086 111.302 43.5072 111.312 43.5057C111.323 43.5042 111.333 43.5028 111.343 43.5013C111.354 43.4998 111.364 43.4984 111.374 43.4969C111.385 43.4954 111.395 43.494 111.405 43.4925C111.416 43.491 111.426 43.4896 111.436 43.4881C111.446 43.4866 111.457 43.4852 111.467 43.4837C111.477 43.4823 111.488 43.4808 111.498 43.4793C111.508 43.4779 111.519 43.4764 111.529 43.4749C111.539 43.4735 111.55 43.472 111.56 43.4705C111.57 43.4691 111.581 43.4676 111.591 43.4661C111.601 43.4647 111.612 43.4632 111.622 43.4617C111.632 43.4603 111.642 43.4588 111.653 43.4574C111.663 43.4559 111.673 43.4544 111.684 43.453C111.694 43.4515 111.704 43.45 111.715 43.4486C111.725 43.4471 111.735 43.4456 111.746 43.4442C111.756 43.4427 111.766 43.4412 111.777 43.4398C111.787 43.4383 111.797 43.4368 111.808 43.4354C111.818 43.4339 111.828 43.4324 111.838 43.431C111.849 43.4295 111.859 43.4281 111.869 43.4266C111.88 43.4251 111.89 43.4237 111.9 43.4222C111.911 43.4207 111.921 43.4193 111.931 43.4178C111.942 43.4163 111.952 43.4149 111.962 43.4134C111.973 43.4119 111.983 43.4105 111.993 43.409C112.004 43.4075 112.014 43.4061 112.024 43.4046C112.034 43.4032 112.045 43.4017 112.055 43.4002C112.065 43.3988 112.076 43.3973 112.086 43.3958C112.096 43.3944 112.107 43.3929 112.117 43.3914C112.127 43.39 112.138 43.3885 112.148 43.387C112.158 43.3856 112.169 43.3841 112.179 43.3826C112.189 43.3812 112.199 43.3797 112.21 43.3782C112.22 43.3768 112.23 43.3753 112.241 43.3739C112.251 43.3724 112.261 43.3709 112.272 43.3695C112.282 43.368 112.292 43.3665 112.303 43.3651C112.313 43.3636 112.323 43.3621 112.334 43.3607C112.344 43.3592 112.354 43.3577 112.365 43.3563C112.375 43.3548 112.385 43.3533 112.395 43.3519C112.406 43.3504 112.416 43.349 112.426 43.3475C112.437 43.346 112.447 43.3446 112.457 43.3431C112.468 43.3416 112.478 43.3402 112.488 43.3387C112.499 43.3372 112.509 43.3358 112.519 43.3343C112.53 43.3328 112.54 43.3314 112.55 43.3299C112.561 43.3284 112.571 43.327 112.581 43.3255C112.591 43.3241 112.602 43.3226 112.612 43.3211C112.622 43.3197 112.633 43.3182 112.643 43.3167C112.653 43.3153 112.664 43.3138 112.674 43.3123C112.684 43.3109 112.695 43.3094 112.705 43.3079C112.715 43.3065 112.726 43.305 112.736 43.3035C112.746 43.3021 112.756 43.3006 112.767 43.2991C112.777 43.2977 112.787 43.2962 112.798 43.2948C112.808 43.2933 112.818 43.2918 112.829 43.2904C112.839 43.2889 112.849 43.2874 112.86 43.286C112.87 43.2845 112.88 43.283 112.891 43.2816C112.901 43.2801 112.911 43.2786 112.922 43.2772C112.932 43.2757 112.942 43.2742 112.952 43.2728C112.963 43.2713 112.973 43.2699 112.983 43.2684C112.994 43.2669 113.004 43.2655 113.014 43.264C113.025 43.2625 113.035 43.2611 113.045 43.2596C113.056 43.2581 113.066 43.2567 113.076 43.2552C113.087 43.2537 113.097 43.2523 113.107 43.2508C113.118 43.2493 113.128 43.2479 113.138 43.2464C113.148 43.2449 113.159 43.2435 113.169 43.242C113.179 43.2406 113.19 43.2391 113.2 43.2376C113.21 43.2362 113.221 43.2347 113.231 43.2332C113.241 43.2318 113.252 43.2303 113.262 43.2288C113.272 43.2274 113.283 43.2259 113.293 43.2244C113.303 43.223 113.313 43.2215 113.324 43.22C113.334 43.2186 113.344 43.2171 113.355 43.2157C113.365 43.2142 113.375 43.2127 113.386 43.2113C113.396 43.2098 113.406 43.2083 113.417 43.2069C113.427 43.2054 113.437 43.2039 113.448 43.2025C113.458 43.201 113.468 43.1995 113.479 43.1981C113.489 43.1966 113.499 43.1951 113.509 43.1937C113.52 43.1922 113.53 43.1907 113.54 43.1893C113.551 43.1878 113.561 43.1864 113.571 43.1849C113.582 43.1834 113.592 43.182 113.602 43.1805C113.613 43.179 113.623 43.1776 113.633 43.1761C113.644 43.1746 113.654 43.1732 113.664 43.1717C113.675 43.1702 113.685 43.1688 113.695 43.1673C113.705 43.1658 113.716 43.1644 113.726 43.1629C113.736 43.1615 113.747 43.16 113.757 43.1585C113.767 43.1571 113.778 43.1556 113.788 43.1541C113.798 43.1527 113.809 43.1512 113.819 43.1497C113.829 43.1483 113.84 43.1468 113.85 43.1453C113.86 43.1439 113.871 43.1424 113.881 43.1409C113.891 43.1395 113.901 43.138 113.912 43.1366C113.922 43.1351 113.932 43.1336 113.943 43.1322C113.953 43.1307 113.963 43.1292 113.974 43.1278C113.984 43.1263 113.994 43.1248 114.005 43.1234C114.015 43.1219 114.025 43.1204 114.036 43.119C114.046 43.1175 114.056 43.116 114.066 43.1146C114.077 43.1131 114.087 43.1116 114.097 43.1102C114.108 43.1087 114.118 43.1073 114.128 43.1058C114.139 43.1043 114.149 43.1029 114.159 43.1014C114.17 43.0999 114.18 43.0985 114.19 43.097C114.201 43.0955 114.211 43.0941 114.221 43.0926C114.232 43.0911 114.242 43.0897 114.252 43.0882C114.262 43.0867 114.273 43.0853 114.283 43.0838C114.293 43.0824 114.304 43.0809 114.314 43.0794C114.324 43.078 114.335 43.0765 114.345 43.075C114.355 43.0736 114.366 43.0721 114.376 43.0706C114.386 43.0692 114.397 43.0677 114.407 43.0662C114.417 43.0648 114.428 43.0633 114.438 43.0618C114.448 43.0604 114.458 43.0589 114.469 43.0574C114.479 43.056 114.489 43.0545 114.5 43.0531C114.51 43.0516 114.52 43.0501 114.531 43.0487C114.541 43.0472 114.551 43.0457 114.562 43.0443C114.572 43.0428 114.582 43.0413 114.593 43.0399C114.603 43.0384 114.613 43.0369 114.623 43.0355C114.634 43.034 114.644 43.0325 114.654 43.0311C114.665 43.0296 114.675 43.0282 114.685 43.0267C114.696 43.0252 114.706 43.0238 114.716 43.0223C114.727 43.0208 114.737 43.0194 114.747 43.0179C114.758 43.0164 114.768 43.015 114.778 43.0135C114.789 43.012 114.799 43.0106 114.809 43.0091C114.819 43.0076 114.83 43.0062 114.84 43.0047C114.85 43.0032 114.861 43.0018 114.871 43.0003C114.881 42.9989 114.892 42.9974 114.902 42.9959C114.912 42.9945 114.923 42.993 114.933 42.9915C114.943 42.9901 114.954 42.9886 114.964 42.9871C114.974 42.9857 114.985 42.9842 114.995 42.9827C115.005 42.9813 115.015 42.9798 115.026 42.9783C115.036 42.9769 115.046 42.9754 115.057 42.974C115.067 42.9725 115.077 42.971 115.088 42.9696C115.098 42.9681 115.108 42.9666 115.119 42.9652C115.129 42.9637 115.139 42.9622 115.15 42.9608C115.16 42.9593 115.17 42.9578 115.181 42.9564C115.191 42.9549 115.201 42.9534 115.211 42.952C115.222 42.9505 115.232 42.9491 115.242 42.9476C115.253 42.9461 115.263 42.9447 115.273 42.9432C115.284 42.9417 115.294 42.9403 115.304 42.9388C115.315 42.9373 115.325 42.9359 115.335 42.9344C115.346 42.9329 115.356 42.9315 115.366 42.93C115.376 42.9285 115.387 42.9271 115.397 42.9256C115.407 42.9241 115.418 42.9227 115.428 42.9212C115.438 42.9198 115.449 42.9183 115.459 42.9168C115.469 42.9154 115.48 42.9139 115.49 42.9124C115.5 42.911 115.511 42.9095 115.521 42.908C115.531 42.9066 115.542 42.9051 115.552 42.9036C115.562 42.9022 115.572 42.9007 115.583 42.8992C115.593 42.8978 115.603 42.8963 115.614 42.8949C115.624 42.8934 115.634 42.8919 115.645 42.8905C115.655 42.889 115.665 42.8875 115.676 42.8861C115.686 42.8846 115.696 42.8831 115.707 42.8817C115.717 42.8802 115.727 42.8787 115.738 42.8773C115.748 42.8758 115.758 42.8743 115.768 42.8729C115.779 42.8714 115.789 42.8699 115.799 42.8685C115.81 42.867 115.82 42.8656 115.83 42.8641C115.841 42.8626 115.851 42.8612 115.861 42.8597C115.872 42.8582 115.882 42.8568 115.892 42.8553C115.903 42.8538 115.913 42.8524 115.923 42.8509C115.933 42.8494 115.944 42.848 115.954 42.8465C115.964 42.845 115.975 42.8436 115.985 42.8421C115.995 42.8407 116.006 42.8392 116.016 42.8377C116.026 42.8363 116.037 42.8348 116.047 42.8333C116.057 42.8319 116.068 42.8304 116.078 42.8289C116.088 42.8275 116.099 42.826 116.109 42.8245C116.119 42.8231 116.129 42.8216 116.14 42.8201C116.15 42.8187 116.16 42.8172 116.171 42.8157C116.181 42.8143 116.191 42.8128 116.202 42.8114C116.212 42.8099 116.222 42.8084 116.233 42.807C116.243 42.8055 116.253 42.804 116.264 42.8026C116.274 42.8011 116.284 42.7996 116.295 42.7982C116.305 42.7967 116.315 42.7952 116.325 42.7938C116.336 42.7923 116.346 42.7908 116.356 42.7894C116.367 42.7879 116.377 42.7865 116.387 42.785C116.398 42.7835 116.408 42.7821 116.418 42.7806C116.429 42.7791 116.439 42.7777 116.449 42.7762C116.46 42.7747 116.47 42.7733 116.48 42.7718C116.491 42.7703 116.501 42.7689 116.511 42.7674C116.521 42.7659 116.532 42.7645 116.542 42.763C116.552 42.7616 116.563 42.7601 116.573 42.7586C116.583 42.7572 116.594 42.7557 116.604 42.7542C116.614 42.7528 116.625 42.7513 116.635 42.7498C116.645 42.7484 116.656 42.7469 116.666 42.7454C116.676 42.744 116.686 42.7425 116.697 42.741C116.707 42.7396 116.717 42.7381 116.728 42.7366C116.738 42.7352 116.748 42.7337 116.759 42.7323C116.769 42.7308 116.779 42.7293 116.79 42.7279C116.8 42.7264 116.81 42.7249 116.821 42.7235C116.831 42.722 116.841 42.7205 116.852 42.7191C116.862 42.7176 116.872 42.7161 116.882 42.7147C116.893 42.7132 116.903 42.7117 116.913 42.7103C116.924 42.7088 116.934 42.7074 116.944 42.7059C116.955 42.7044 116.965 42.703 116.975 42.7015C116.986 42.7 116.996 42.6986 117.006 42.6971C117.017 42.6956 117.027 42.6942 117.037 42.6927C117.048 42.6912 117.058 42.6898 117.068 42.6883C117.078 42.6868 117.089 42.6854 117.099 42.6839C117.109 42.6824 117.12 42.681 117.13 42.6795C117.14 42.6781 117.151 42.6766 117.161 42.6751C117.171 42.6737 117.182 42.6722 117.192 42.6707C117.202 42.6693 117.213 42.6678 117.223 42.6663C117.233 42.6649 117.243 42.6634 117.254 42.6619C117.264 42.6605 117.274 42.659 117.285 42.6575C117.295 42.6561 117.305 42.6546 117.316 42.6532C117.326 42.6517 117.336 42.6502 117.347 42.6488C117.357 42.6473 117.367 42.6458 117.378 42.6444C117.388 42.6429 117.398 42.6414 117.409 42.64C117.419 42.6385 117.429 42.637 117.439 42.6356C117.45 42.6341 117.46 42.6326 117.47 42.6312C117.481 42.6297 117.491 42.6282 117.501 42.6268C117.512 42.6253 117.522 42.6239 117.532 42.6224C117.543 42.6209 117.553 42.6195 117.563 42.618C117.574 42.6165 117.584 42.6151 117.594 42.6136C117.605 42.6121 117.615 42.6107 117.625 42.6092C117.635 42.6077 117.646 42.6063 117.656 42.6048C117.666 42.6033 117.677 42.6019 117.687 42.6004C117.697 42.599 117.708 42.5975 117.718 42.596C117.728 42.5946 117.739 42.5931 117.749 42.5916C117.759 42.5902 117.77 42.5887 117.78 42.5872C117.79 42.5858 117.8 42.5843 117.811 42.5828C117.821 42.5814 117.831 42.5799 117.842 42.5784C117.852 42.577 117.862 42.5755 117.873 42.5741C117.883 42.5726 117.893 42.5711 117.904 42.5697C117.914 42.5682 117.924 42.5667 117.935 42.5653C117.945 42.5638 117.955 42.5623 117.966 42.5609C117.976 42.5594 117.986 42.5579 117.996 42.5565C118.007 42.555 118.017 42.5535 118.027 42.5521C118.038 42.5506 118.048 42.5491 118.058 42.5477C118.069 42.5462 118.079 42.5448 118.089 42.5433C118.1 42.5418 118.11 42.5404 118.12 42.5389C118.131 42.5374 118.141 42.536 118.151 42.5345C118.162 42.533 118.172 42.5316 118.182 42.5301C118.192 42.5286 118.203 42.5272 118.213 42.5257C118.223 42.5242 118.234 42.5228 118.244 42.5213C118.254 42.5199 118.265 42.5184 118.275 42.5169C118.285 42.5155 118.296 42.514 118.306 42.5125C118.316 42.5111 118.327 42.5096 118.337 42.5081C118.347 42.5067 118.358 42.5052 118.368 42.5037C118.378 42.5023 118.388 42.5008 118.399 42.4993C118.409 42.4979 118.419 42.4964 118.43 42.4949C118.44 42.4935 118.45 42.492 118.461 42.4906C118.471 42.4891 118.481 42.4876 118.492 42.4862C118.502 42.4847 118.512 42.4832 118.523 42.4818C118.533 42.4803 118.543 42.4788 118.553 42.4774C118.564 42.4759 118.574 42.4744 118.584 42.473C118.595 42.4715 118.605 42.47 118.615 42.4686C118.626 42.4671 118.636 42.4657 118.646 42.4642C118.657 42.4627 118.667 42.4613 118.677 42.4598C118.688 42.4583 118.698 42.4569 118.708 42.4554C118.719 42.4539 118.729 42.4525 118.739 42.451C118.749 42.4495 118.76 42.4481 118.77 42.4466C118.78 42.4451 118.791 42.4437 118.801 42.4422C118.811 42.4407 118.822 42.4393 118.832 42.4378C118.842 42.4364 118.853 42.4349 118.863 42.4334C118.873 42.432 118.884 42.4305 118.894 42.429C118.904 42.4276 118.915 42.4261 118.925 42.4246C118.935 42.4232 118.945 42.4217 118.956 42.4202C118.966 42.4188 118.976 42.4173 118.987 42.4158C118.997 42.4144 119.007 42.4129 119.018 42.4115C119.028 42.41 119.038 42.4085 119.049 42.4071C119.059 42.4056 119.069 42.4041 119.08 42.4027C119.09 42.4012 119.1 42.3997 119.11 42.3983C119.121 42.3968 119.131 42.3953 119.141 42.3939C119.152 42.3924 119.162 42.3909 119.172 42.3895C119.183 42.388 119.193 42.3866 119.203 42.3851C119.214 42.3836 119.224 42.3822 119.234 42.3807C119.245 42.3792 119.255 42.3778 119.265 42.3763C119.276 42.3748 119.286 42.3734 119.296 42.3719C119.306 42.3704 119.317 42.369 119.327 42.3675C119.337 42.366 119.348 42.3646 119.358 42.3631C119.368 42.3616 119.379 42.3602 119.389 42.3587C119.399 42.3573 119.41 42.3558 119.42 42.3543C119.43 42.3529 119.441 42.3514 119.451 42.3499C119.461 42.3485 119.472 42.347 119.482 42.3455C119.492 42.3441 119.502 42.3426 119.513 42.3411C119.523 42.3397 119.533 42.3382 119.544 42.3367C119.554 42.3353 119.564 42.3338 119.575 42.3324C119.585 42.3309 119.595 42.3294 119.606 42.328C119.616 42.3265 119.626 42.325 119.637 42.3236C119.647 42.3221 119.657 42.3206 119.668 42.3192C119.678 42.3177 119.688 42.3162 119.698 42.3148C119.709 42.3133 119.719 42.3118 119.729 42.3104C119.74 42.3089 119.75 42.3074 119.76 42.306C119.771 42.3045 119.781 42.3031 119.791 42.3016C119.802 42.3001 119.812 42.2987 119.822 42.2972C119.833 42.2957 119.843 42.2943 119.853 42.2928C119.863 42.2913 119.874 42.2899 119.884 42.2884C119.894 42.2869 119.905 42.2855 119.915 42.284C119.925 42.2825 119.936 42.2811 119.946 42.2796C119.956 42.2782 119.967 42.2767 119.977 42.2752C119.987 42.2738 119.998 42.2723 120.008 42.2708C120.018 42.2694 120.029 42.2679 120.039 42.2664C120.049 42.265 120.059 42.2635 120.07 42.262C120.08 42.2606 120.09 42.2591 120.101 42.2576C120.111 42.2562 120.121 42.2547 120.132 42.2532C120.142 42.2518 120.152 42.2503 120.163 42.2489C120.173 42.2474 120.183 42.2459 120.194 42.2445C120.204 42.243 120.214 42.2415 120.225 42.2401C120.235 42.2386 120.245 42.2371 120.255 42.2357C120.266 42.2342 120.276 42.2327 120.286 42.2313C120.297 42.2298 120.307 42.2283 120.317 42.2269C120.328 42.2254 120.338 42.224 120.348 42.2225C120.359 42.221 120.369 42.2196 120.379 42.2181C120.39 42.2166 120.4 42.2152 120.41 42.2137C120.42 42.2122 120.431 42.2108 120.441 42.2093C120.451 42.2078 120.462 42.2064 120.472 42.2049C120.482 42.2034 120.493 42.202 120.503 42.2005C120.513 42.1991 120.524 42.1976 120.534 42.1961C120.544 42.1947 120.555 42.1932 120.565 42.1917C120.575 42.1903 120.586 42.1888 120.596 42.1873C120.606 42.1859 120.616 42.1844 120.627 42.1829C120.637 42.1815 120.647 42.18 120.658 42.1785C120.668 42.1771 120.678 42.1756 120.689 42.1741C120.699 42.1727 120.709 42.1712 120.72 42.1698C120.73 42.1683 120.74 42.1668 120.751 42.1654C120.761 42.1639 120.771 42.1624 120.782 42.161C120.792 42.1595 120.802 42.158 120.812 42.1566C120.823 42.1551 120.833 42.1536 120.843 42.1522C120.854 42.1507 120.864 42.1492 120.874 42.1478C120.885 42.1463 120.895 42.1449 120.905 42.1434C120.916 42.1419 120.926 42.1405 120.936 42.139C120.947 42.1375 120.957 42.1361 120.967 42.1346C120.977 42.1331 120.988 42.1317 120.998 42.1302C121.008 42.1287 121.019 42.1273 121.029 42.1258C121.039 42.1243 121.05 42.1229 121.06 42.1214C121.07 42.1199 121.081 42.1185 121.091 42.117C121.101 42.1156 121.112 42.1141 121.122 42.1126C121.132 42.1112 121.143 42.1097 121.153 42.1082C121.163 42.1068 121.173 42.1053 121.184 42.1038C121.194 42.1024 121.204 42.1009 121.215 42.0994C121.225 42.098 121.235 42.0965 121.246 42.095C121.256 42.0936 121.266 42.0921 121.277 42.0907C121.287 42.0892 121.297 42.0877 121.308 42.0863C121.318 42.0848 121.328 42.0833 121.339 42.0819C121.349 42.0804 121.359 42.0789 121.369 42.0775C121.38 42.076 121.39 42.0745 121.4 42.0731C121.411 42.0716 121.421 42.0701 121.431 42.0687C121.442 42.0672 121.452 42.0657 121.462 42.0643C121.473 42.0628 121.483 42.0614 121.493 42.0599C121.504 42.0584 121.514 42.057 121.524 42.0555C121.535 42.054 121.545 42.0526 121.555 42.0511C121.565 42.0496 121.576 42.0482 121.586 42.0467C121.596 42.0452 121.607 42.0438 121.617 42.0423C121.627 42.0408 121.638 42.0394 121.648 42.0379C121.658 42.0365 121.669 42.035 121.679 42.0335C121.689 42.0321 121.7 42.0306 121.71 42.0291C121.72 42.0277 121.73 42.0262 121.741 42.0247C121.751 42.0233 121.761 42.0218 121.772 42.0203C121.782 42.0189 121.792 42.0174 121.803 42.0159C121.813 42.0145 121.823 42.013 121.834 42.0116C121.844 42.0101 121.854 42.0086 121.865 42.0072C121.875 42.0057 121.885 42.0042 121.896 42.0028C121.906 42.0013 121.916 41.9998 121.926 41.9984C121.937 41.9969 121.947 41.9954 121.957 41.994C121.968 41.9925 121.978 41.991 121.988 41.9896C121.999 41.9881 122.009 41.9866 122.019 41.9852C122.03 41.9837 122.04 41.9823 122.05 41.9808C122.061 41.9793 122.071 41.9779 122.081 41.9764C122.092 41.9749 122.102 41.9735 122.112 41.972C122.122 41.9705 122.133 41.9691 122.143 41.9676C122.153 41.9661 122.164 41.9647 122.174 41.9632C122.184 41.9617 122.195 41.9603 122.205 41.9588L121.924 39.9787ZM105.28 43.5584C106.15 45.9677 107.52 47.9265 109.402 49.3972L110.633 47.8216C109.077 46.6048 107.916 44.9698 107.161 42.8791L105.28 43.5584ZM109.408 49.4025C111.349 50.8928 113.647 51.625 116.252 51.625V49.625C114.045 49.625 112.186 49.0135 110.627 47.8162L109.408 49.4025ZM116.252 51.625C117.626 51.625 119.089 51.3676 120.634 50.8745L120.026 48.9692C118.634 49.4136 117.378 49.625 116.252 49.625V51.625ZM120.628 50.8764C122.173 50.3938 123.699 49.7992 125.207 49.0932L124.359 47.2818C122.93 47.9508 121.487 48.5125 120.032 48.9674L120.628 50.8764ZM125.223 49.0857C126.717 48.3545 128.149 47.5748 129.519 46.7464L128.484 45.0349C127.167 45.8315 125.787 46.583 124.344 47.2893L125.223 49.0857ZM129.519 46.7464C130.873 45.9278 132.045 45.1839 133.031 44.5154L131.91 42.8596C130.959 43.5036 129.818 44.2285 128.484 45.0349L129.519 46.7464ZM131.476 43.5824L129.226 64.8636L131.215 65.0739L133.465 43.7926L131.476 43.5824ZM129.611 64.1761C128.454 65.0661 127.191 65.8241 125.821 66.4497L126.652 68.2691C128.156 67.5822 129.55 66.7464 130.83 65.7614L129.611 64.1761ZM125.813 66.4532C124.462 67.0839 123.049 67.5952 121.574 67.9866L122.086 69.9197C123.674 69.4986 125.198 68.9473 126.659 68.2656L125.813 66.4532ZM121.574 67.9866C120.087 68.3809 118.586 68.669 117.07 68.8509L117.309 70.8366C118.918 70.6435 120.51 70.3378 122.086 69.9197L121.574 67.9866ZM117.07 68.8509C115.545 69.0339 114.054 69.125 112.596 69.125V71.125C114.137 71.125 115.708 71.0286 117.309 70.8366L117.07 68.8509ZM112.596 69.125C109.593 69.125 106.872 68.7156 104.424 67.9095L103.799 69.8092C106.476 70.6907 109.411 71.125 112.596 71.125V69.125ZM104.424 67.9095C101.953 67.096 99.7168 65.969 97.7093 64.5308L96.5445 66.1567C98.7245 67.7185 101.144 68.9353 103.799 69.8092L104.424 67.9095ZM97.723 64.5408C95.7371 63.0665 93.9922 61.3368 92.4865 59.3493L90.8923 60.557C92.5116 62.6945 94.3916 64.5585 96.5308 66.1467L97.723 64.5408ZM92.4865 59.3493C90.9751 57.3543 89.7194 55.1765 88.7197 52.8135L86.8778 53.5928C87.9406 56.1048 89.2786 58.427 90.8923 60.557L92.4865 59.3493ZM88.7197 52.8135C87.7166 50.4426 86.955 47.931 86.4364 45.277L84.4736 45.6605C85.0175 48.444 85.8184 51.0887 86.8778 53.5928L88.7197 52.8135ZM86.4364 45.277C85.9176 42.6217 85.6581 39.9359 85.6581 37.2188H83.6581C83.6581 40.0641 83.9299 42.8783 84.4736 45.6605L86.4364 45.277ZM85.6581 37.2188C85.6581 34.3738 85.9181 31.5277 86.4387 28.6798L84.4713 28.3202C83.9294 31.2848 83.6581 34.2512 83.6581 37.2188H85.6581ZM86.4387 28.6798C86.9585 25.8363 87.7376 23.1025 88.7756 20.477L86.9157 19.7417C85.8286 22.4913 85.014 25.3512 84.4713 28.3202L86.4387 28.6798ZM88.7719 20.4863C89.8374 17.8681 91.1598 15.4523 92.7382 13.2364L91.1093 12.0761C89.4377 14.4227 88.0413 16.9757 86.9194 19.7324L88.7719 20.4863ZM92.7367 13.2385C94.3392 11.0012 96.1957 9.05469 98.3072 7.39569L97.0716 5.82306C94.808 7.60156 92.8208 9.68631 91.1108 12.074L92.7367 13.2385ZM98.3072 7.39569C100.405 5.74769 102.776 4.4555 105.428 3.52131L104.763 1.63494C101.915 2.63825 99.3491 4.03356 97.0716 5.82306L98.3072 7.39569ZM105.425 3.52248C108.087 2.59518 111.036 2.125 114.283 2.125V0.125C110.842 0.125 107.667 0.623567 104.767 1.63377L105.425 3.52248ZM114.283 2.125C116.971 2.125 119.391 2.50241 121.553 3.24293L122.201 1.35082C119.801 0.528842 117.158 0.125 114.283 0.125V2.125ZM121.568 3.2481C123.78 3.96551 125.723 4.9766 127.406 6.27597L128.629 4.69278C126.749 3.24215 124.598 2.12824 122.185 1.34565L121.568 3.2481ZM127.422 6.28769C129.147 7.56642 130.634 9.09783 131.886 10.886L133.524 9.73904C132.151 7.77717 130.513 6.08983 128.613 4.68106L127.422 6.28769ZM131.892 10.895C133.183 12.6957 134.236 14.6799 135.05 16.8511L136.923 16.1489C136.049 13.8201 134.915 11.6793 133.518 9.72998L131.892 10.895ZM135.056 16.8669C135.903 19.015 136.526 21.3048 136.921 23.7385L138.895 23.4177C138.478 20.8514 137.819 18.4225 136.917 16.1331L135.056 16.8669ZM136.923 23.7526C137.351 26.1625 137.564 28.6197 137.564 31.125H139.564C139.564 28.5053 139.341 25.9312 138.893 23.4036L136.923 23.7526ZM120.814 28.6875C120.814 27.7406 120.713 26.7821 120.512 25.813L118.554 26.2182C118.728 27.0616 118.814 27.8844 118.814 28.6875H120.814ZM120.514 25.8195C120.307 24.7846 119.958 23.8351 119.459 22.9805L117.732 23.9882C118.108 24.6337 118.385 25.3717 118.553 26.2117L120.514 25.8195ZM119.475 23.0081C118.995 22.1216 118.341 21.3909 117.518 20.83L116.392 22.4825C116.944 22.8591 117.384 23.3472 117.716 23.9607L119.475 23.0081ZM117.543 20.8475C116.651 20.1986 115.573 19.9062 114.377 19.9062V21.9062C115.243 21.9062 115.884 22.1139 116.367 22.465L117.543 20.8475ZM114.377 19.9062C112.931 19.9062 111.617 20.308 110.47 21.122L111.627 22.753C112.418 22.192 113.323 21.9062 114.377 21.9062V19.9062ZM110.475 21.1183C109.428 21.8516 108.53 22.7879 107.779 23.914L109.443 25.0235C110.068 24.0871 110.795 23.3359 111.622 22.7567L110.475 21.1183ZM107.787 23.9022C107.051 24.9737 106.45 26.1421 105.985 27.4043L107.862 28.0957C108.272 26.9829 108.797 25.9638 109.435 25.0353L107.787 23.9022ZM105.985 27.4043C105.536 28.6252 105.193 29.7637 104.962 30.8176L106.916 31.2449C107.123 30.2988 107.437 29.2498 107.862 28.0957L105.985 27.4043ZM106.034 32.0268L119.909 30.7143L119.72 28.7232L105.845 30.0357L106.034 32.0268ZM120.814 29.7188V28.6875H118.814V29.7188H120.814ZM192.848 59.0156L191.959 58.5566L191.953 58.5684L192.848 59.0156ZM183.519 67.0312L183.886 67.9617L183.893 67.9588L183.519 67.0312ZM170.254 69.8906L170.185 68.893L170.184 68.893L170.254 69.8906ZM157.879 69.8906L157.953 68.8933L157.939 68.8925L157.879 69.8906ZM145.598 67.8281L145.313 68.7868L145.32 68.7888L145.327 68.7908L145.598 67.8281ZM139.926 65.625L138.926 65.6266L138.927 66.2484L139.485 66.5226L139.926 65.625ZM139.832 5.25L139.452 4.32498L138.831 4.58008L138.832 5.25155L139.832 5.25ZM145.41 3.32812L145.685 4.28965L145.692 4.28764L145.699 4.28553L145.41 3.32812ZM151.41 1.875L151.592 2.85845L151.603 2.85615L151.41 1.875ZM157.551 0.984375L157.643 1.98014L157.65 1.97944L157.658 1.97863L157.551 0.984375ZM170.16 1.07812L170.036 2.0704L170.038 2.07061L170.16 1.07812ZM182.582 5.0625L182.076 5.92527L182.087 5.93166L182.582 5.0625ZM187.316 8.90625L186.565 9.56588L186.572 9.57438L187.316 8.90625ZM190.504 14.25L189.566 14.5964L189.57 14.609L190.504 14.25ZM185.348 33.4688L185.879 34.3156L185.886 34.3113L185.893 34.3067L185.348 33.4688ZM180.801 35.3438L180.567 34.3715L180.548 36.3112L180.801 35.3438ZM186.332 37.6875L185.803 38.5364L185.81 38.5408L186.332 37.6875ZM190.598 41.4375L189.812 42.0561L189.82 42.0662L190.598 41.4375ZM193.316 46.4062L192.369 46.7273L192.372 46.7345L192.374 46.7416L193.316 46.4062ZM169.926 23.2969L169.057 23.793L169.063 23.8022L169.068 23.8114L169.926 23.2969ZM168.519 21.7031L167.912 22.4975L167.923 22.5058L167.934 22.5138L168.519 21.7031ZM166.738 20.8125L166.451 21.7704L166.463 21.774L166.738 20.8125ZM161.488 21.4688L161.082 20.5549L160.506 20.8111L160.488 21.4417L161.488 21.4688ZM161.207 31.875L160.207 31.848L160.179 32.875H161.207V31.875ZM166.926 30.8906L167.312 31.8128L167.319 31.8099L167.326 31.8068L166.926 30.8906ZM169.457 29.0156L170.22 29.6616L170.226 29.6545L170.232 29.6473L169.457 29.0156ZM161.207 41.1562L160.99 40.1801L160.221 40.351L160.207 41.1387L161.207 41.1562ZM161.019 51.8438L160.02 51.8262L160.005 52.6607L160.823 52.8243L161.019 51.8438ZM162.379 52.125L162.169 53.1028L162.208 53.111L162.247 53.1162L162.379 52.125ZM165.894 52.0312L166.052 53.0187L166.071 53.0156L166.09 53.0118L165.894 52.0312ZM168.098 51.1875L168.606 52.0484L168.62 52.04L168.634 52.0312L168.098 51.1875ZM169.785 49.4531L168.947 48.9069L168.939 48.9199L168.931 48.9332L169.785 49.4531ZM169.785 43.6875L168.921 44.1914L168.929 44.2046L168.937 44.2175L169.785 43.6875ZM168.144 41.9531L167.59 42.7852L167.604 42.7945L167.618 42.8034L168.144 41.9531ZM165.988 41.1094L165.792 42.09L165.811 42.0938L165.83 42.0968L165.988 41.1094ZM193.301 52.3125C193.301 54.7825 192.84 56.8524 191.959 58.5566L193.736 59.4746C194.793 57.4289 195.301 55.03 195.301 52.3125H193.301ZM191.953 58.5684C191.077 60.3202 189.899 61.8028 188.415 63.0249L189.686 64.5688C191.39 63.166 192.743 61.461 193.742 59.4628L191.953 58.5684ZM188.415 63.0249C186.907 64.2667 185.153 65.2946 183.146 66.1037L183.893 67.9588C186.073 67.0804 188.007 65.952 189.686 64.5688L188.415 63.0249ZM183.153 66.1008C181.145 66.8918 179.043 67.5165 176.847 67.9741L177.255 69.9321C179.558 69.4522 181.769 68.7957 183.886 67.9617L183.153 66.1008ZM176.847 67.9741C174.641 68.4336 172.421 68.7399 170.185 68.893L170.322 70.8883C172.649 70.7289 174.96 70.4101 177.255 69.9321L176.847 67.9741ZM170.184 68.893C167.954 69.0479 165.868 69.125 163.926 69.125V71.125C165.921 71.125 168.053 71.0458 170.323 70.8882L170.184 68.893ZM163.926 69.125C162.015 69.125 160.024 69.048 157.953 68.8934L157.804 70.8879C159.921 71.0458 161.961 71.125 163.926 71.125V69.125ZM157.939 68.8925C155.912 68.7696 153.884 68.5392 151.856 68.2011L151.527 70.1739C153.623 70.5233 155.721 70.7617 157.818 70.8888L157.939 68.8925ZM151.856 68.2011C149.829 67.8633 147.833 67.4181 145.868 66.8655L145.327 68.7908C147.362 69.3632 149.429 69.8242 151.527 70.1739L151.856 68.2011ZM145.882 66.8695C143.933 66.2909 142.095 65.5765 140.367 64.7274L139.485 66.5226C141.319 67.4235 143.262 68.1779 145.313 68.7868L145.882 66.8695ZM140.926 65.6234L140.832 5.24845L138.832 5.25155L138.926 65.6266L140.926 65.6234ZM140.212 6.17502C141.925 5.47148 143.749 4.84277 145.685 4.28965L145.135 2.3666C143.134 2.93848 141.239 3.59102 139.452 4.32498L140.212 6.17502ZM145.699 4.28553C147.632 3.70245 149.596 3.22673 151.592 2.85838L151.228 0.891618C149.161 1.27327 147.125 1.7663 145.121 2.37072L145.699 4.28553ZM151.603 2.85615C153.633 2.4563 155.646 2.16441 157.643 1.98014L157.459 -0.0113917C155.392 0.179341 153.312 0.481202 151.217 0.893852L151.603 2.85615ZM157.658 1.97863C159.656 1.76344 161.589 1.65625 163.457 1.65625V-0.34375C161.512 -0.34375 159.508 -0.232186 157.444 -0.00987614L157.658 1.97863ZM163.457 1.65625C165.633 1.65625 167.826 1.79418 170.036 2.0704L170.284 0.0858471C167.994 -0.200433 165.718 -0.34375 163.457 -0.34375V1.65625ZM170.038 2.07061C172.262 2.34482 174.39 2.80125 176.423 3.4386L177.022 1.53015C174.868 0.855001 172.621 0.37393 170.282 0.0856394L170.038 2.07061ZM176.423 3.4386C178.448 4.07325 180.332 4.90257 182.076 5.9252L183.088 4.1998C181.207 3.09743 179.184 2.208 177.022 1.53015L176.423 3.4386ZM182.087 5.93166C183.805 6.90917 185.296 8.12026 186.565 9.56584L188.068 8.24666C186.649 6.62974 184.983 5.27833 183.076 4.19334L182.087 5.93166ZM186.572 9.57438C187.858 11.0068 188.857 12.6774 189.566 14.5964L191.442 13.9036C190.65 11.7601 189.524 9.86825 188.06 8.23812L186.572 9.57438ZM189.57 14.609C190.299 16.5035 190.676 18.7215 190.676 21.2812H192.676C192.676 18.5285 192.271 16.059 191.437 13.891L189.57 14.609ZM190.676 21.2812C190.676 22.9349 190.44 24.47 189.975 25.8927L191.876 26.5135C192.412 24.8738 192.676 23.1276 192.676 21.2812H190.676ZM189.975 25.8927C189.509 27.3211 188.842 28.594 187.977 29.7184L189.562 30.9378C190.572 29.6248 191.343 28.1476 191.876 26.5135L189.975 25.8927ZM187.977 29.7184C187.111 30.8439 186.055 31.8147 184.802 32.6308L185.893 34.3067C187.327 33.3728 188.553 32.2499 189.562 30.9378L187.977 29.7184ZM184.816 32.6219C183.572 33.4028 182.159 33.9883 180.567 34.3715L181.035 36.316C182.818 35.8867 184.436 35.2222 185.879 34.3156L184.816 32.6219ZM180.548 36.3112C182.489 36.8189 184.239 37.5622 185.803 38.5364L186.86 36.8386C185.113 35.7503 183.175 34.9311 181.054 34.3763L180.548 36.3112ZM185.81 38.5408C187.403 39.5137 188.733 40.6859 189.812 42.0561L191.383 40.8189C190.149 39.2516 188.636 37.9238 186.853 36.8342L185.81 38.5408ZM189.82 42.0662C190.931 43.4404 191.781 44.9918 192.369 46.7273L194.263 46.0852C193.602 44.1332 192.639 42.3721 191.375 40.8088L189.82 42.0662ZM192.374 46.7416C192.989 48.4704 193.301 50.325 193.301 52.3125H195.301C195.301 50.1125 194.956 48.0296 194.258 46.0709L192.374 46.7416ZM171.488 25.5938C171.488 24.5501 171.272 23.5965 170.783 22.7824L169.068 23.8114C169.33 24.2473 169.488 24.8249 169.488 25.5938H171.488ZM170.794 22.8007C170.355 22.0319 169.793 21.3894 169.105 20.8924L167.934 22.5138C168.371 22.8293 168.747 23.2494 169.057 23.793L170.794 22.8007ZM169.127 20.9088C168.494 20.4249 167.787 20.0722 167.013 19.851L166.463 21.774C167.002 21.9278 167.482 22.1689 167.912 22.4975L169.127 20.9088ZM167.025 19.8547C166.334 19.6472 165.672 19.5312 165.051 19.5312V21.5312C165.429 21.5312 165.892 21.6028 166.451 21.7703L167.025 19.8547ZM165.051 19.5312C164.324 19.5312 163.613 19.6405 162.921 19.8589L163.524 21.7661C164.02 21.6095 164.527 21.5312 165.051 21.5312V19.5312ZM162.921 19.8589C162.292 20.0576 161.679 20.2896 161.082 20.5549L161.894 22.3826C162.422 22.1479 162.965 21.9424 163.524 21.7661L162.921 19.8589ZM160.488 21.4417L160.207 31.848L162.207 31.902L162.488 21.4958L160.488 21.4417ZM161.207 32.875C161.979 32.875 162.911 32.8082 163.996 32.6807L163.762 30.6943C162.721 30.8168 161.873 30.875 161.207 30.875V32.875ZM163.996 32.6807C165.149 32.5449 166.256 32.2559 167.312 31.8128L166.539 29.9684C165.658 30.3379 164.733 30.5801 163.762 30.6943L163.996 32.6807ZM167.326 31.8068C168.463 31.3097 169.432 30.5937 170.22 29.6616L168.693 28.3697C168.107 29.0626 167.389 29.5966 166.525 29.9745L167.326 31.8068ZM170.232 29.6473C171.106 28.575 171.488 27.1871 171.488 25.5938H169.488C169.488 26.8754 169.183 27.7688 168.682 28.384L170.232 29.6473ZM163.832 39.875C162.856 39.875 161.908 39.976 160.99 40.1801L161.424 42.1324C162.193 41.9615 162.995 41.875 163.832 41.875V39.875ZM160.207 41.1387L160.02 51.8262L162.019 51.8613L162.207 41.1738L160.207 41.1387ZM160.823 52.8243C161.288 52.9172 161.736 53.0101 162.169 53.1028L162.588 51.1472C162.146 51.0524 161.688 50.9578 161.215 50.8632L160.823 52.8243ZM162.247 53.1162C162.756 53.1841 163.253 53.2188 163.738 53.2188V51.2188C163.348 51.2188 162.939 51.1909 162.511 51.1338L162.247 53.1162ZM163.738 53.2188C164.457 53.2188 165.229 53.1504 166.052 53.0187L165.736 51.0438C164.997 51.1621 164.332 51.2188 163.738 51.2188V53.2188ZM166.09 53.0118C166.982 52.8335 167.822 52.5117 168.606 52.0484L167.589 50.3266C166.998 50.6758 166.369 50.9165 165.698 51.0507L166.09 53.0118ZM168.634 52.0312C169.455 51.5088 170.125 50.8182 170.639 49.9731L168.931 48.9332C168.57 49.5255 168.115 49.9912 167.561 50.3438L168.634 52.0312ZM170.623 49.9994C171.231 49.0669 171.488 47.9034 171.488 46.5938H169.488C169.488 47.6591 169.277 48.4018 168.947 48.9069L170.623 49.9994ZM171.488 46.5938C171.488 45.2812 171.23 44.1121 170.633 43.1575L168.937 44.2175C169.278 44.7629 169.488 45.5313 169.488 46.5938H171.488ZM170.649 43.1836C170.139 42.3102 169.483 41.6055 168.671 41.1029L167.618 42.8034C168.119 43.1132 168.556 43.5648 168.921 44.1914L170.649 43.1836ZM168.699 41.1211C167.923 40.6036 167.069 40.2696 166.146 40.1219L165.83 42.0968C166.47 42.1992 167.053 42.4276 167.59 42.7852L168.699 41.1211ZM166.184 40.1288C165.352 39.9623 164.566 39.875 163.832 39.875V41.875C164.41 41.875 165.062 41.944 165.792 42.09L166.184 40.1288Z" fill="black" mask="url(#path-1-outside-1_105_5)"/>
</svg>
