<svg xmlns="http://www.w3.org/2000/svg" viewBox="0 0 512 640" x="0px" y="0px"><path d="M472,128H376V104c0-24.023-12.84-46.425-36.154-63.078C317.347,24.851,287.569,16,256,16s-61.347,8.851-83.846,24.922C148.84,57.575,136,79.977,136,104v24H40c-13.233,0-24,12.561-24,28V264a8,8,0,0,0,6.379,7.834l1.621.335V472.278A23.749,23.749,0,0,0,47.722,496H464.278A23.749,23.749,0,0,0,488,472.278V272.169l1.621-.335A8,8,0,0,0,496,264V156C496,140.561,485.233,128,472,128Zm-128,0V112h16v16ZM184,104c0-21.683,32.972-40,72-40s72,18.317,72,40v24H184Zm72-72c53.44,0,97.587,28.05,103.355,64H343.128C337.2,68.521,301.067,48,256,48s-81.2,20.521-87.128,48H152.645C158.413,60.05,202.56,32,256,32ZM152,112h16v16H152ZM32,156c0-6.393,3.738-12,8-12H472c4.262,0,8,5.607,8,12V257.485L295.978,295.559A7.994,7.994,0,0,0,288,288H224a7.994,7.994,0,0,0-7.978,7.559L32,257.485ZM232,320V304h48v16Zm8,16h32v16H240ZM472,472.278A7.731,7.731,0,0,1,464.278,480H47.722A7.731,7.731,0,0,1,40,472.278V275.48l176,36.413V328a8,8,0,0,0,8,8v24a8,8,0,0,0,8,8h48a8,8,0,0,0,8-8V336a8,8,0,0,0,8-8V311.893L472,275.48Z"/><text x="0" y="527" fill="#FFFFFF" font-size="5px" font-weight="bold" font-family="'Helvetica Neue', Helvetica, Arial-Unicode, Arial, Sans-serif">Created by iconixar</text><text x="0" y="532" fill="#FFFFFF" font-size="5px" font-weight="bold" font-family="'Helvetica Neue', Helvetica, Arial-Unicode, Arial, Sans-serif">from the Noun Project</text></svg>